<svg width="75" height="75" viewBox="0 0 75 75" fill="none" xmlns="http://www.w3.org/2000/svg">
<path d="M73.6362 39.2182L73.6375 39.2196C74.069 39.6951 74.353 40.286 74.4548 40.9203C74.5566 41.5546 74.4718 42.2048 74.2108 42.7917C73.9497 43.3786 73.5237 43.8767 72.9847 44.2254C72.4458 44.5741 71.8171 44.7582 71.1754 44.7555H71.1737L63.7446 44.7555H63.3446V45.1555L63.3446 71.179C63.3446 72.059 62.9953 72.9029 62.3736 73.5251C61.752 74.1472 60.909 74.4967 60.03 74.4967H15.455C14.576 74.4967 13.733 74.1472 13.1114 73.5251C12.4897 72.9029 12.1404 72.059 12.1404 71.179L12.1404 45.1555V44.7555H11.7404H4.31137C4.31133 44.7555 4.3113 44.7555 4.31126 44.7555C3.67071 44.7553 3.0439 44.5694 2.50669 44.2201C1.96944 43.8708 1.54481 43.3731 1.28421 42.7872C1.02361 42.2014 0.938239 41.5525 1.03844 40.919C1.13864 40.2856 1.42011 39.6948 1.84875 39.2182L1.55133 38.9508L1.84876 39.2182L35.28 2.04176L35.2803 2.04144C36.5291 0.649727 38.9558 0.649727 40.2047 2.04144L40.205 2.04176L73.6362 39.2182ZM29.5797 49.6069C31.7446 51.7735 34.6808 52.9908 37.7425 52.9908C40.8042 52.9908 43.7404 51.7735 45.9053 49.6069C48.0701 47.4403 49.2862 44.5018 49.2862 41.4379C49.2862 38.3739 48.0701 35.4354 45.9053 33.2688C43.7404 31.1022 40.8042 29.8849 37.7425 29.8849C34.6808 29.8849 31.7446 31.1022 29.5797 33.2688C27.4149 35.4354 26.1988 38.3739 26.1988 41.4379C26.1988 44.5018 27.4149 47.4403 29.5797 49.6069Z" stroke="#B6B6B6" stroke-width="0.8"/>
</svg>
