<svg width="85" height="43" viewBox="0 0 85 43" fill="none" xmlns="http://www.w3.org/2000/svg">
<path d="M9.91192 40.0265L9.91461 40.0265C11.7089 40.0313 13.4798 40.4345 15.0993 41.207C16.5437 41.8631 18.138 42.2499 19.8057 42.25C21.4245 42.2434 23.0228 41.8879 24.4918 41.2076C26.1105 40.4353 27.8806 40.0318 29.6742 40.0265H29.6754C31.5103 40.0265 33.2791 40.4651 34.8396 41.2073C36.3173 41.8873 37.9235 42.2429 39.5501 42.25C41.1692 42.2453 42.7679 41.8897 44.2364 41.2078C45.854 40.4354 47.6231 40.0319 49.4157 40.0265H49.4169C51.2711 40.0265 53.018 40.4654 54.5828 41.2073C56.0584 41.8879 57.6631 42.2435 59.2881 42.25C60.9041 42.2453 62.4999 41.8896 63.965 41.2075C65.5461 40.4658 67.2965 40.0265 69.1499 40.0265C71.0204 40.0265 72.2902 40.4753 73.8517 41.2068C75.1741 41.817 76.2467 42.1843 77.659 42.242V35.6172C76.0886 35.558 74.9037 35.1479 73.5164 34.5077C72.0201 33.8242 70.6258 33.4197 68.9091 33.4197C67.1884 33.4197 65.6749 33.8263 64.1815 34.5077C62.6603 35.2071 61.0229 35.6246 59.2266 35.6246C57.4317 35.6246 55.7557 35.2094 54.2154 34.5083L54.2154 34.5083L54.2108 34.5062C52.7052 33.7979 51.063 33.4271 49.3991 33.4197C47.6787 33.4199 46.0333 33.8288 44.5663 34.5073L44.5657 34.5076C43.0437 35.2082 41.3384 35.6246 39.5461 35.6246C37.7539 35.6246 36.0475 35.2099 34.5046 34.5084L34.5006 34.5065C32.99 33.7996 31.3441 33.4288 29.6764 33.4197C27.9523 33.4198 26.3 33.8289 24.8314 34.5073L24.8311 34.5075C23.3102 35.2084 21.5793 35.6246 19.808 35.6246L19.8065 35.6246C18.0652 35.6179 16.3456 35.2369 14.7645 34.5074L14.7628 34.5067C13.2443 33.798 11.5901 33.4271 9.91437 33.4197C8.20921 33.4199 6.55533 33.8288 5.09026 34.5072L5.08945 34.5076C3.68161 35.1556 2.06769 35.5599 0.444382 35.6175L0.442871 42.2424C1.94485 42.1852 3.44318 41.8104 4.7503 41.2076C6.36233 40.4371 8.1252 40.0337 9.91192 40.0265ZM19.2122 7.34137L19.2094 7.2996L19.2151 7.2591L19.2151 7.25905L19.2151 7.25875L19.2152 7.25848L19.2152 7.25814L19.2155 7.25594L19.2176 7.23828C19.2194 7.22158 19.2219 7.19538 19.2244 7.1611C19.2293 7.09236 19.2337 6.99215 19.231 6.87157C19.2255 6.62742 19.1912 6.31499 19.0837 6.0147C18.9772 5.717 18.8041 5.4449 18.5268 5.25171C18.2523 5.06036 17.8372 4.9196 17.1965 4.95053C17.1951 4.9506 17.1936 4.95067 17.1922 4.95074L6.9814 5.68525L6.01583 12.3387L19.4804 11.2683L19.2122 7.34137ZM53.2183 1.74938L61.6399 10.3949L62.2301 11.0008L61.3873 11.0726L2.03207 16.1298L0.512733 28.5896C1.97713 28.5264 3.41647 28.1763 4.74855 27.5577C6.31103 26.8152 8.08016 26.3782 9.91184 26.3782L9.91279 26.3782C11.7074 26.3825 13.4786 26.7853 15.0985 27.5575C16.5741 28.2387 18.1791 28.5943 19.8044 28.6C21.4232 28.5934 23.0216 28.2378 24.4906 27.5574C26.0564 26.8151 27.8237 26.3782 29.6737 26.3782L29.675 26.3782C31.462 26.3842 33.2253 26.7869 34.8377 27.5572C36.285 28.2164 37.8792 28.6 39.5457 28.6C41.1653 28.5955 42.7647 28.2398 44.2336 27.5575C45.7978 26.8151 47.5669 26.3782 49.4135 26.3782L49.4145 26.3782C51.2026 26.3825 52.9673 26.7854 54.5802 27.5577C56.0561 28.2388 57.6613 28.5943 59.2868 28.6C60.9553 28.5999 62.5378 28.2144 63.9645 27.5569C65.5456 26.8155 67.2955 26.3782 69.1482 26.3782C71.0015 26.3782 72.7501 26.8158 74.333 27.5574L74.333 27.5574L74.3367 27.5592C74.8041 27.784 75.2859 27.9775 75.7788 28.1383C76.6759 27.032 78.7654 23.9511 80.6733 20.314C81.6898 18.3761 82.6488 16.2915 83.3455 14.2759C83.9836 12.4298 84.3944 10.6622 84.4388 9.12825L65.3284 10.7334L65.1397 10.7493L65.0079 10.6134L56.1453 1.48316L53.2183 1.74938ZM42.1713 5.09228C42.1713 7.55933 44.122 9.53455 46.532 9.53455C48.9378 9.53455 50.8842 7.56008 50.8842 5.09228C50.8842 2.62446 48.9378 0.65 46.532 0.65C44.1203 0.65 42.1713 2.62352 42.1713 5.09228Z" stroke="#B6B6B6" stroke-width="0.8"/>
</svg>
