<svg width="180" height="43" viewBox="0 0 180 43" fill="none" xmlns="http://www.w3.org/2000/svg">
<path d="M179.2 21.8847C179.2 15.9287 179.2 9.97608 179.2 4.02008C179.2 3.81447 179.197 3.60888 179.193 3.40327C179.193 3.09653 179.021 2.9617 178.735 2.95833C177.956 2.95159 177.174 2.97856 176.396 2.94148C175.893 2.91789 175.563 3.0999 175.246 3.48753C173.557 5.55376 171.838 7.59638 170.13 9.64575C169.843 9.98956 169.546 10.33 169.233 10.694C168.778 10.4884 168.623 10.1851 168.417 9.939C166.728 7.92333 165.053 5.90093 163.371 3.8819C163.186 3.65943 163.001 3.4437 162.815 3.22461C162.677 3.06282 162.512 2.95834 162.289 2.96171C161.346 2.96171 160.402 2.95832 159.458 2.96843C159.229 2.96843 159.091 3.12348 159.084 3.36617C159.077 3.61223 159.07 3.85829 159.07 4.10435C159.07 10.0165 159.07 15.9321 159.07 21.8442C159.07 22.0903 159.074 22.3364 159.087 22.5824C159.097 22.8319 159.256 22.9498 159.485 22.9532C160.223 22.9633 160.965 22.9633 161.703 22.9599C163.092 22.9532 162.963 23.088 162.967 21.7162C162.967 17.9376 162.967 14.1591 162.967 10.3839C162.967 10.057 162.98 9.72665 162.977 9.3997C162.977 9.29858 162.997 9.2278 163.095 9.21431C163.166 9.2042 163.267 9.20084 163.307 9.24129C163.506 9.4469 163.692 9.66599 163.874 9.88845C165.333 11.6648 166.806 13.431 168.245 15.2242C168.957 16.1107 169.223 16.2354 170.001 15.2579C171.41 13.4917 172.86 11.7625 174.292 10.0165C174.501 9.76374 174.71 9.51092 174.929 9.26824C174.973 9.22105 175.078 9.19071 175.135 9.20757C175.192 9.22442 175.266 9.30868 175.27 9.36935C175.29 9.69631 175.293 10.0266 175.293 10.3536C175.293 14.0479 175.293 17.7455 175.293 21.4398C175.293 21.7263 175.287 22.0162 175.293 22.3027C175.31 22.8993 175.351 22.9498 175.907 22.9599C176.645 22.9734 177.387 22.9599 178.125 22.9633C179.264 22.97 179.193 22.9802 179.193 21.8847" fill="white"/>
<path d="M126.75 15.8962C127.198 16.4861 127.623 17.0894 127.98 17.7366C128.752 19.1388 129.497 20.5511 130.279 21.9466C130.973 23.1836 130.784 22.9477 131.971 22.9645C132.793 22.978 133.612 22.9712 134.435 22.9645C134.624 22.9645 134.836 23.0319 135.015 22.8364C135.048 22.6274 134.9 22.4656 134.809 22.2937C134.094 20.9556 133.383 19.6174 132.662 18.2826C132.271 17.5613 131.877 16.8433 131.465 16.1355C130.946 15.2389 130.302 14.4468 129.443 13.8468C129.349 13.7794 129.284 13.6749 129.14 13.5131C129.544 13.2704 129.868 13.0918 130.174 12.8862C131.122 12.2491 131.826 11.4132 132.163 10.3076C132.878 7.9515 132.254 5.16395 129.497 3.71456C128.496 3.18873 127.424 2.96291 126.295 2.96291C124.161 2.96291 122.027 2.96291 119.89 2.96291C118.751 2.96291 118.835 2.94605 118.835 4.05163C118.835 10.0042 118.835 15.9535 118.835 21.9061C118.835 22.1522 118.842 22.3982 118.856 22.6443C118.866 22.8364 118.984 22.951 119.169 22.951C120.234 22.9611 121.303 22.9645 122.368 22.9544C122.611 22.9544 122.718 22.7791 122.725 22.5499C122.732 22.2634 122.735 21.9769 122.735 21.687C122.735 19.7185 122.735 17.7467 122.735 15.7748C122.735 15.4883 122.735 15.2018 122.749 14.9119C122.755 14.74 122.82 14.5884 123.015 14.5648C124.481 14.3895 125.789 14.6322 126.753 15.8996M123.093 11.4402C122.843 11.4334 122.742 11.2649 122.742 11.0357C122.739 10.2166 122.742 9.39752 122.742 8.57845H122.739C122.739 7.84027 122.739 7.10209 122.739 6.36728C122.739 6.06055 122.894 5.92573 123.194 5.9291C124.013 5.93584 124.832 5.93584 125.651 5.94595C125.853 5.94595 126.062 5.97292 126.261 6.01337C127.7 6.3201 128.459 7.27063 128.428 8.71328C128.398 10.0919 127.532 11.1368 126.163 11.3694C125.149 11.5413 124.121 11.4671 123.096 11.4435" fill="white"/>
<path d="M18.2167 22.7745C18.0954 22.6531 17.9471 22.5183 17.8122 22.37C14.991 19.2791 12.1697 16.1848 9.34846 13.0905C9.21026 12.9389 9.07206 12.7872 8.93723 12.6321C8.78555 12.4535 8.78219 12.2613 8.92038 12.076C9.09229 11.8468 9.27093 11.6209 9.44621 11.3951C11.381 8.94796 13.3191 6.50423 15.2505 4.05375C15.4966 3.74364 15.8033 3.46724 15.9516 2.99535C15.5842 2.9785 15.264 2.95152 14.9438 2.94815C13.9595 2.94478 12.9753 2.94816 11.9877 2.95153C11.7686 2.95153 11.6034 3.0695 11.4754 3.2414C11.327 3.4369 11.1686 3.62567 11.0169 3.8178C9.12937 6.19749 7.24179 8.57719 5.35084 10.9535C5.12163 11.2434 4.88568 11.5265 4.62951 11.7894C4.55198 11.8703 4.38345 11.8366 4.36659 11.6849C4.33289 11.3614 4.31941 11.031 4.31941 10.7041C4.31604 8.40529 4.3194 6.10648 4.31266 3.80767C4.31266 3.53465 4.40367 3.23128 4.06323 2.94141C3.81717 2.94141 3.49359 2.94141 3.17001 2.94141C2.39138 2.94141 1.60938 2.94141 0.830754 2.94478C0.591436 2.94478 0.453243 3.05939 0.446502 3.30882C0.443131 3.51443 0.439754 3.72005 0.439754 3.92566C0.439754 9.91873 0.439754 15.9118 0.439754 21.9049C0.439754 22.2284 0.379086 22.5621 0.571215 22.9397C1.68017 22.9397 2.8262 22.943 3.97223 22.9363C4.15425 22.9363 4.27222 22.8048 4.2857 22.6262C4.30929 22.3397 4.31266 22.0532 4.31266 21.7667C4.31266 19.4274 4.31266 17.0882 4.31266 14.7489C4.31266 14.422 4.32615 14.0916 4.34637 13.768C4.34974 13.704 4.41716 13.6399 4.46772 13.586C4.5385 13.5085 4.60928 13.522 4.68344 13.5995C4.93624 13.8658 5.20252 14.1253 5.45195 14.395C7.90244 17.0477 10.3563 19.6971 12.7933 22.3633C13.1809 22.788 13.5854 22.9902 14.1719 22.9734C15.7662 22.9228 17.3639 22.9295 18.9583 22.9127C18.8369 22.6936 18.7055 22.4812 18.7156 22.2183C18.4965 22.343 18.5403 22.6801 18.21 22.7779" fill="white"/>
<path d="M156.536 22.8973C156.654 22.3985 156.357 22.0614 156.199 21.7008C154.604 18.0537 152.99 14.4167 151.379 10.7764C150.317 8.37311 149.245 5.97655 148.2 3.56651C148.011 3.12832 147.769 2.92945 147.283 2.9463C146.38 2.97663 145.477 2.97663 144.573 2.9463C144.078 2.92945 143.852 3.14518 143.677 3.58674C143.09 5.07658 142.46 6.54619 141.85 8.02591C139.956 12.6168 138.058 17.2043 136.18 21.7985C136.039 22.1423 135.732 22.4828 135.928 22.9614C137.026 22.9614 138.095 22.9445 139.16 22.9715C139.595 22.9816 139.838 22.8232 139.989 22.4221C140.444 21.2356 140.953 20.066 141.378 18.8694C141.587 18.2761 141.89 18.0469 142.537 18.0571C144.715 18.0975 146.892 18.0571 149.07 18.0773C150.88 18.0941 150.418 17.7739 151.17 19.4795C151.618 20.494 152.046 21.5154 152.484 22.53C152.582 22.7592 152.7 22.958 153.01 22.958C154.038 22.9513 155.063 22.958 156.091 22.958C156.243 22.958 156.394 22.9176 156.539 22.9007M143.114 15.0841C142.979 14.8886 143.023 14.7369 143.084 14.5853C143.933 12.4112 144.782 10.2337 145.632 8.05963C145.676 7.94503 145.703 7.82031 145.76 7.71582C145.794 7.65515 145.878 7.59785 145.945 7.5911C146.006 7.58773 146.107 7.63829 146.131 7.69222C146.319 8.10007 146.495 8.51803 146.67 8.93263C147.459 10.7798 148.247 12.6269 149.029 14.474C149.09 14.619 149.127 14.774 149.225 15.0841H143.11H143.114Z" fill="white"/>
<path d="M75.4 21.7168C73.3843 17.136 71.3552 12.562 69.3328 7.98803C68.6687 6.48808 68.0013 4.98813 67.3474 3.48481C67.2261 3.20841 67.1081 2.95898 66.7542 2.95898C65.6452 2.95898 64.5363 2.96234 63.4273 2.96909C63.2487 2.96909 63.1172 3.06684 63.0431 3.22863C62.9217 3.48818 62.8038 3.7511 62.6959 4.01401C60.242 9.96663 57.7882 15.9192 55.3343 21.8719C55.213 22.1685 55.0984 22.4718 54.9062 22.9606C56.15 22.9606 57.2152 22.9437 58.2803 22.9673C58.7522 22.9774 59.0252 22.8392 59.1971 22.3673C59.6657 21.0966 60.1881 19.8495 60.6836 18.5888C60.8151 18.2551 61.0038 18.0596 61.4049 18.063C64.034 18.0765 66.6598 18.0731 69.2889 18.063C69.626 18.063 69.8249 18.2046 69.9496 18.4944C70.2091 19.0978 70.4653 19.7011 70.7215 20.3045C71.0451 21.0595 71.372 21.8112 71.6922 22.5662C71.7765 22.7651 71.8776 22.937 72.1203 22.9404C73.3405 22.9505 74.5641 23.0044 75.7842 22.9067C75.8112 22.4213 75.5584 22.0775 75.3966 21.7101M62.2206 14.9923C62.5813 13.5901 64.725 8.18689 65.2306 7.45209C66.3025 9.96324 67.3575 12.4373 68.4631 15.026C66.9025 15.1912 63.0768 15.1575 62.2206 14.9923Z" fill="white"/>
<path d="M39.1591 22.9514C39.3074 22.4154 39.0074 22.075 38.849 21.7177C36.2603 15.8257 33.6514 9.93717 31.0492 4.05197C30.9346 3.78906 30.82 3.52614 30.6953 3.2666C30.6009 3.06773 30.4358 2.9565 30.2099 2.9565C29.1414 2.9565 28.0763 2.9565 27.0078 2.95312C26.728 2.95312 26.5393 3.07109 26.428 3.32052C26.3303 3.54635 26.2427 3.77557 26.1483 4.00478C23.772 9.76527 21.3923 15.5258 19.026 21.2896C18.9047 21.5862 18.7058 21.8694 18.726 22.2166C18.7159 22.4795 18.8474 22.6952 18.9687 22.9109C20.0406 22.9851 21.1159 22.9952 22.1877 22.9042C22.2653 22.8401 22.3394 22.7795 22.4169 22.7154C22.5147 22.5401 22.6327 22.3716 22.7068 22.1862C23.1349 21.1211 23.5394 20.0458 23.9843 18.9874C24.3787 18.0437 24.2304 18.0672 25.2989 18.0706C27.5977 18.0706 29.8965 18.0706 32.1953 18.0706H33.1964C33.402 18.5324 33.5874 18.9403 33.766 19.3515C34.2211 20.4065 34.6694 21.4615 35.1244 22.5165C35.2221 22.7424 35.33 22.9581 35.6401 22.9547C36.8198 22.948 38.003 22.9547 39.1625 22.9547M31.7369 15.0842H25.7606C25.6191 14.8954 25.6629 14.7438 25.7236 14.5887C26.5865 12.3742 27.4494 10.1596 28.3123 7.9451C28.3426 7.86757 28.3527 7.77994 28.3999 7.7159C28.4437 7.65859 28.5179 7.59455 28.5819 7.58781C28.6426 7.58107 28.7437 7.63162 28.7707 7.68555C28.9122 7.98217 29.0336 8.28555 29.1617 8.58554C29.9807 10.5068 30.8032 12.4281 31.6223 14.3528C31.6998 14.5382 31.8312 14.71 31.7369 15.0808" fill="white"/>
<path d="M49.0551 22.6343C49.0719 22.3073 49.0753 21.977 49.0753 21.65C49.0753 19.1456 49.0989 16.6378 49.0618 14.1334C49.0517 13.3953 49.2405 12.8121 49.6921 12.2189C51.8359 9.41448 53.9392 6.57636 56.0492 3.74162C56.2009 3.53601 56.4908 3.36748 56.3627 2.94614C55.2268 2.94614 54.0808 2.98323 52.9381 2.93267C52.2909 2.90233 51.8797 3.10119 51.5056 3.6405C50.3258 5.32247 49.0955 6.96399 47.8753 8.61563C47.663 8.90551 47.5079 9.24933 47.1405 9.4482C46.8102 9.2527 46.645 8.91225 46.4327 8.619C45.2968 7.05838 44.1676 5.49439 43.035 3.9304C42.8665 3.69782 42.6946 3.46859 42.5261 3.23602C42.398 3.05737 42.2294 2.95289 42.0104 2.95289C40.6216 2.95289 39.2295 2.95289 37.6318 2.95289C38.0262 3.4922 38.2655 3.82252 38.5116 4.14948C40.5407 6.83591 42.5598 9.53246 44.6091 12.202C45.0339 12.7548 45.2125 13.3144 45.2058 14.0053C45.1788 16.5536 45.1923 19.0985 45.1956 21.6467C45.1956 21.9736 45.199 22.304 45.2226 22.6309C45.2361 22.8096 45.3608 22.9376 45.5428 22.9376C46.6113 22.9444 47.6765 22.9444 48.745 22.9376C48.9337 22.9376 49.045 22.8163 49.0551 22.6309" fill="white"/>
<path d="M91.5592 19.9786C91.2727 19.955 90.9862 19.9482 90.6997 19.9482C88.3166 19.9482 85.9369 19.9482 83.5539 19.9482C82.0168 19.9482 82.1382 20.0864 82.1382 18.5865C82.1382 13.8237 82.1382 9.06093 82.1382 4.29479C82.1382 3.96783 82.1314 3.63751 82.1213 3.31055C82.1146 3.12854 82.0202 3.00046 81.8348 2.98023C81.6326 2.96001 81.4236 2.95327 81.2213 2.95664C80.2843 2.9836 79.3405 2.88248 78.4203 3.01731C78.2147 3.39819 78.2956 3.77571 78.2922 4.13638C78.2855 10.0081 78.2888 15.8798 78.2922 21.7515C78.2922 22.0381 78.2956 22.3279 78.3124 22.6111C78.3225 22.7863 78.4203 22.9178 78.6091 22.9346C78.8113 22.9515 79.0169 22.9515 79.2225 22.9515C83.1224 22.9515 87.0256 22.9515 90.9255 22.9515C91.1311 22.9515 91.3367 22.9481 91.539 22.9313C91.7176 22.9144 91.8592 22.8133 91.8592 22.6279C91.8727 21.8493 91.8727 21.0707 91.8659 20.2887C91.8659 20.1066 91.7345 19.9853 91.5592 19.9684" fill="white"/>
<path d="M100.69 7.52924C103.023 6.0057 105.389 5.94164 107.796 7.34722C108.005 7.46856 108.217 7.5798 108.426 7.69778C108.52 7.69104 108.615 7.6843 108.706 7.68093C108.712 7.37757 108.911 7.17195 109.08 6.95285C109.693 6.16748 110.303 5.38212 110.917 4.59675C110.991 4.40799 111.065 4.22261 111.139 4.03385C111.109 3.94959 111.079 3.86194 111.048 3.77768C111.015 3.77094 110.978 3.77093 110.944 3.76756C110.94 3.76756 110.934 3.76756 110.93 3.76756C110.775 3.76081 110.61 3.76757 110.472 3.72038C110.364 3.6833 110.273 3.60915 110.202 3.46758C109.579 2.99906 108.867 2.70579 108.149 2.42266C107.937 2.36873 107.728 2.3148 107.519 2.26087C107.428 2.24402 107.307 2.25076 107.229 2.2238C107.202 2.21369 107.182 2.20358 107.169 2.18335C106.882 1.79235 106.478 1.80583 106.063 1.79909C105.53 1.79235 104.998 1.76537 104.465 1.74515C104.216 1.73504 103.977 1.69123 103.784 1.50922C103.704 1.49573 103.619 1.48223 103.538 1.46875C103.518 1.80245 103.34 1.98447 103.009 1.99795C102.891 2.00132 102.77 2.00132 102.652 1.99795C102.534 1.99795 102.413 1.99122 102.295 1.99122C100.64 2.25413 99.1666 2.92153 97.8487 3.95296C97.7375 4.21587 97.4813 4.21249 97.2622 4.27316C97.1375 4.46529 97.006 4.65068 96.7836 4.74169C96.7768 4.81921 96.7364 4.95067 96.7701 4.97089C97.8352 5.67873 98.5296 6.74725 99.4093 7.63711C99.4936 7.72475 99.561 7.82923 99.6352 7.92698C99.7868 7.92698 99.9385 7.93036 100.09 7.93373C100.292 7.7989 100.491 7.66408 100.694 7.53262" fill="white"/>
<path d="M94.5725 8.10013C94.4579 8.3226 94.3837 8.56528 94.2759 8.79449C94.2321 8.8855 94.1849 8.97312 94.1242 9.05402C94.0939 9.09447 94.0602 9.13493 94.0264 9.17201C92.8366 12.9438 93.4096 16.4055 95.8668 19.5335C96.0657 19.6009 96.1264 19.793 96.241 19.9413C96.3623 20.0998 96.5039 20.1301 96.6421 20.0087C96.6623 19.9919 96.6825 19.9717 96.6994 19.9481C97.5387 19.1897 98.3814 18.4346 99.2173 17.6661C99.4869 17.4201 99.7094 17.4639 99.9521 17.6931C100.033 17.7706 100.164 17.7976 100.272 17.8515C100.279 17.8448 100.286 17.838 100.293 17.8279C100.316 17.8043 100.34 17.7773 100.363 17.7537C100.279 17.4571 100.009 17.3122 99.8139 17.1133C97.7342 14.9864 97.5319 11.7101 98.9611 9.38771C99.1027 9.15514 99.3184 8.96301 99.3589 8.67313C99.3555 8.67313 99.3521 8.67988 99.3487 8.67988C99.3285 8.66303 99.3117 8.64616 99.2982 8.62931C99.0353 8.58549 98.7656 8.67987 98.5061 8.44055C97.8218 7.82035 97.0837 7.26082 96.3657 6.67769C96.0758 6.44512 95.9646 6.20242 96.2342 5.8721C96.3724 5.70356 96.3893 5.5148 96.1567 5.38672C95.6781 6.15186 95.1253 6.85298 94.4208 7.426C94.4882 7.58779 94.623 7.72935 94.6264 7.908C94.6264 7.96867 94.6129 8.02935 94.5792 8.10013" fill="white"/>
<path d="M98.7153 22.0427C98.7658 22.0495 98.813 22.0967 98.8568 22.218C99.0456 22.2989 99.2344 22.3697 99.4198 22.4573C103.448 24.355 107.287 24.0213 110.931 21.463C110.974 21.4057 111.012 21.3281 111.069 21.2911C111.298 21.1428 111.342 21.0517 111.018 20.9911C110.941 20.9776 110.877 20.9371 110.829 20.8832C110.782 20.8293 110.755 20.7551 110.745 20.6709C110.317 20.0776 109.892 19.4844 109.464 18.8911C109.276 18.6282 109.104 18.3451 108.888 18.1058C108.605 17.7957 109.158 17.5125 108.888 17.2227C108.632 17.4249 108.386 17.6406 108.119 17.8226C105.895 19.3495 103.593 19.4507 101.213 18.2035C100.93 18.0552 100.711 17.7822 100.364 17.7485C100.34 17.7754 100.316 17.799 100.293 17.8226C100.286 17.8294 100.279 17.8395 100.273 17.8462C100.367 18.0822 100.39 18.2945 100.205 18.5204C99.5613 19.3125 98.9411 20.1181 98.3108 20.9203C98.2973 21.2068 97.9704 21.2439 97.876 21.4663C98.0479 21.7124 98.2198 21.9551 98.3917 22.2011C98.4793 22.2011 98.5737 22.0832 98.6614 22.0461C98.6816 22.0394 98.7018 22.036 98.722 22.036" fill="white"/>
<path d="M135.334 34.5941C134.906 34.5638 134.647 34.7289 134.488 35.1334C133.969 36.4716 133.43 37.803 132.904 39.1378C132.83 39.3265 132.79 39.5355 132.496 39.6366C132.415 39.4782 132.321 39.313 132.247 39.1411C131.869 38.2311 131.499 37.321 131.124 36.4109C130.939 35.9559 130.754 35.4974 130.568 35.0424C130.447 34.7458 130.235 34.6008 129.904 34.5941C129.426 34.584 129.274 34.648 129.068 35.1401C128.607 36.2356 128.172 37.3446 127.72 38.4468C127.552 38.858 127.44 39.3029 127.076 39.7007C126.945 39.4513 126.817 39.2524 126.729 39.0367C126.311 38.012 125.907 36.9806 125.495 35.9525C125.357 35.6087 125.229 35.2615 125.064 34.9312C124.899 34.6008 124.285 34.466 123.989 34.6851C123.935 34.7256 123.884 34.83 123.898 34.8873C123.958 35.1233 124.033 35.3592 124.124 35.5885C124.956 37.6412 125.792 39.6939 126.631 41.7433C126.709 41.9321 126.793 42.1175 126.888 42.2995C126.958 42.4377 127.218 42.4478 127.292 42.313C127.41 42.0972 127.528 41.8815 127.619 41.6557C128.145 40.3647 128.66 39.067 129.19 37.776C129.358 37.3614 129.473 36.9165 129.79 36.5794C130.08 36.7379 130.14 37.0379 130.245 37.2974C130.744 38.5108 131.229 39.731 131.728 40.9445C131.913 41.3995 132.115 41.8478 132.318 42.2961C132.382 42.4377 132.645 42.4512 132.726 42.3231C132.793 42.2219 132.864 42.1175 132.908 42.0062C133.834 39.7243 134.758 37.4457 135.678 35.1604C135.83 34.7795 135.712 34.6211 135.334 34.5941Z" fill="white"/>
<path d="M87.1812 34.7398C86.0351 34.5376 84.8925 34.6185 83.7498 34.5982C83.1633 34.5881 83.0757 34.7027 83.0656 35.3465C83.0521 36.4117 83.0656 37.4768 83.0656 38.5453C83.0656 39.6947 83.0656 40.8407 83.0656 41.9901C83.0656 42.2463 83.1094 42.5295 83.4161 42.5429C84.8048 42.6036 86.2171 42.7586 87.5688 42.3373C89.2508 41.8081 90.417 40.4228 90.3698 38.4375C90.326 36.7049 89.089 35.0735 87.1845 34.7398M87.1239 41.2958C86.3183 41.5486 85.4992 41.4441 84.6835 41.4373C84.3768 41.4373 84.2655 41.2183 84.2655 40.9452C84.2622 40.1666 84.2655 39.388 84.2655 38.606C84.2655 37.8274 84.2554 37.0487 84.2723 36.2667C84.279 35.8859 84.4105 35.7611 84.8048 35.751C85.3778 35.7375 85.9542 35.7241 86.5273 35.7611C87.9227 35.8589 88.9474 36.8296 89.0721 38.1408C89.2238 39.7217 88.5193 40.8542 87.1272 41.2924" fill="white"/>
<path d="M40.4366 34.5294C40.3523 34.5294 40.2276 34.5294 40.1062 34.5294C38.4883 34.5125 36.9243 35.7495 36.4457 37.1787C35.9704 38.6079 36.1727 40.391 37.4906 41.5876C38.9231 42.8886 41.2995 43.0572 42.9814 41.9347C44.414 40.9775 45.0375 39.3225 44.6567 37.6371C44.2117 35.6754 42.3309 34.4013 40.4366 34.526M40.4635 41.5808C38.4108 41.6145 37.3052 39.9595 37.44 38.5708C37.3153 37.0439 38.7142 35.5237 40.4905 35.5675C42.2433 35.6113 43.5882 36.8079 43.5477 38.591C43.5073 40.3741 42.3815 41.5505 40.4635 41.5808Z" fill="white"/>
<path d="M81.3897 35.281C81.3897 35.2001 81.3897 35.1159 81.3796 35.035C81.3459 34.7417 81.1673 34.617 80.8841 34.6103C80.5706 34.6035 80.3886 34.7249 80.365 34.9979C80.3414 35.244 80.3414 35.49 80.3414 35.7361C80.3414 37.0911 80.3414 38.4461 80.3347 39.8011C80.3347 39.9865 80.4122 40.2157 80.1426 40.3404C79.9066 40.2663 79.7617 40.064 79.6033 39.8854C78.7673 38.9281 77.9348 37.9641 77.0988 37.0035C76.5056 36.3226 75.9191 35.635 75.3191 34.9608C75.0191 34.6238 74.6416 34.5058 74.3382 34.6507C74.0214 34.8024 74.0349 35.1125 74.0349 35.399C74.0349 37.3709 74.0349 39.3393 74.0349 41.3112C74.0349 41.5168 74.0282 41.7224 74.0416 41.928C74.0686 42.3864 74.2169 42.5482 74.6079 42.5684C75.0023 42.5887 75.1641 42.4302 75.1708 41.9617C75.1843 41.2235 75.1742 40.4854 75.1742 39.7438C75.1742 38.8068 75.1742 37.8731 75.1742 36.8214C75.6596 36.9866 75.8112 37.2428 75.9932 37.4551C77.2337 38.8776 78.464 40.3101 79.7044 41.7359C79.9201 41.982 80.1358 42.2348 80.3886 42.4404C80.6279 42.6359 80.9414 42.6257 81.2043 42.4875C81.4032 42.3831 81.3897 42.1404 81.3897 41.9348C81.3897 39.7169 81.3897 37.4989 81.3897 35.2844" fill="white"/>
<path d="M99.6894 38.9464C99.4333 38.7442 99.1602 38.5655 98.8973 38.3734C98.9513 38.1071 99.1906 37.9891 99.3322 37.7936C99.7805 37.1701 99.8108 36.4993 99.5074 35.8151C99.2378 35.2083 98.7153 34.8982 98.0951 34.7331C97.1682 34.4836 96.2278 34.5949 95.2873 34.6252C95.1121 34.632 94.9806 34.7499 94.9604 34.9319C94.9334 35.1746 94.9199 35.4207 94.9199 35.6634C94.9199 37.6285 94.9199 39.5936 94.9199 41.5587C94.9199 41.7643 94.9199 41.9699 94.9368 42.1721C94.957 42.4047 95.1053 42.553 95.3345 42.5598C96.3963 42.5935 97.4614 42.6575 98.5165 42.4485C98.8468 42.3845 99.1434 42.2598 99.4232 42.0879C100.552 41.3969 100.697 39.7385 99.6928 38.9397M96.1266 36.2532C96.1536 35.8791 96.2716 35.7712 96.6626 35.751C96.7839 35.7443 96.9086 35.751 97.2255 35.751C97.1513 35.751 97.2727 35.751 97.394 35.7611C98.0412 35.8252 98.3547 36.0847 98.412 36.6072C98.4895 37.2712 98.1895 37.7599 97.603 37.9386C97.5625 37.9521 97.5221 37.9554 97.485 37.9655C96.3727 38.215 96.1131 38.006 96.1165 36.8701C96.1165 36.6678 96.1165 36.4622 96.1266 36.26M98.4962 41.2722C97.7951 41.5722 97.0569 41.4778 96.3289 41.3935C96.2581 41.3834 96.1637 41.2115 96.1502 41.1036C96.1132 40.8205 96.1165 40.534 96.1165 40.507C96.1098 39.0442 96.0457 38.9869 97.4513 39.0914C97.7749 39.115 98.1019 39.179 98.4086 39.2868C98.8164 39.4318 99.0827 39.7351 99.1232 40.1936C99.167 40.6857 98.9648 41.0767 98.4962 41.2756" fill="white"/>
<path d="M158.703 38.8445C158.788 38.6827 158.798 38.6422 158.825 38.6119C158.882 38.5512 158.943 38.4973 159.003 38.4434C159.725 37.8535 159.89 37.0715 159.664 36.2221C159.431 35.3424 158.778 34.8873 157.911 34.6885C157.217 34.5267 156.523 34.5974 155.828 34.5974C155.188 34.5974 155.11 34.675 155.107 35.3087C155.097 37.5266 155.104 39.7411 155.107 41.959C155.107 42.0803 155.12 42.2084 155.154 42.323C155.174 42.3938 155.242 42.4646 155.306 42.505C155.717 42.7646 156.28 42.4983 156.29 42.0298C156.307 41.2916 156.29 40.5534 156.304 39.8119C156.317 39.2456 156.536 39.0838 157.065 39.1816C157.318 39.2287 157.527 39.34 157.716 39.5052C158.083 39.8388 158.393 40.2164 158.649 40.6411C158.923 41.0995 159.226 41.5377 159.502 41.9961C159.762 42.4275 160.129 42.6264 160.631 42.5826C160.79 42.5691 160.985 42.6096 161.043 42.4174C161.07 42.323 161.009 42.1815 160.945 42.0905C160.197 41.0118 159.57 39.8523 158.703 38.8411M158.023 37.7659C157.699 37.9749 157.342 38.0052 156.893 38.0018C156.85 37.9985 156.728 37.9917 156.607 37.9715C156.425 37.9412 156.324 37.8232 156.314 37.6412C156.3 37.358 156.27 37.0715 156.293 36.7918C156.327 36.4109 156.084 35.8581 156.526 35.6929C157.055 35.4974 157.662 35.6525 158.134 35.9996C158.724 36.4311 158.639 37.3681 158.019 37.7659" fill="white"/>
<path d="M22.2856 39.0769C22.1271 38.8949 22.1103 38.7196 22.299 38.5477C22.3597 38.4938 22.4305 38.4466 22.4844 38.3893C23.7248 37.041 23.2192 35.2343 21.4665 34.7388C20.6171 34.4995 19.7576 34.5973 18.898 34.6276C18.6621 34.6343 18.5441 34.8164 18.5239 35.0422C18.507 35.2444 18.5104 35.4534 18.5104 35.659C18.5104 37.6309 18.5104 39.6027 18.5104 41.5712C18.5104 41.7768 18.5003 41.9858 18.5306 42.1847C18.5475 42.2959 18.6115 42.4341 18.6992 42.4914C18.9183 42.6296 19.1677 42.6161 19.4104 42.5453C19.6463 42.4746 19.7003 42.279 19.7003 42.0667C19.707 41.2881 19.7003 40.5061 19.7171 39.7274C19.7272 39.2825 19.9126 39.1443 20.3306 39.1814C20.6272 39.2084 20.8867 39.3027 21.1092 39.505C21.4766 39.8387 21.7934 40.2094 22.0496 40.6375C22.3226 41.0959 22.6226 41.5375 22.9024 41.9925C23.2833 42.6161 23.8125 42.7273 24.4361 42.5116C24.5237 42.333 24.4495 42.2285 24.3788 42.1307C23.6608 41.133 23.1013 40.0241 22.2889 39.087M21.2406 37.8702C20.971 37.9915 20.6912 37.9983 20.4081 38.0016C19.8149 38.0118 19.7306 37.9241 19.707 37.3006C19.7003 37.0983 19.707 36.8961 19.707 36.7579C19.68 35.4972 19.7609 35.5208 20.9878 35.7433C21.4766 35.8309 21.8036 36.0938 21.908 36.586C22.0328 37.1623 21.7732 37.6309 21.2406 37.8702Z" fill="white"/>
<path d="M51.7984 41.9455C51.131 41.0118 50.6422 39.9568 49.8434 39.1141C49.6883 38.9523 49.6479 38.7602 49.8299 38.5748C49.9175 38.4872 50.0119 38.4063 50.0894 38.3153C51.2658 36.9299 50.7871 35.2783 49.058 34.7525C48.8254 34.6817 48.5794 34.621 48.3367 34.6109C47.7637 34.5906 47.1873 34.5906 46.6142 34.6109C46.23 34.6244 46.1053 34.7491 46.1019 35.1502C46.0884 36.2996 46.0985 37.449 46.0985 38.5984H46.0918C46.0918 39.6669 46.0918 40.732 46.0918 41.8005C46.0918 41.8814 46.0918 41.9657 46.0952 42.0466C46.1255 42.4679 46.2806 42.6027 46.7289 42.5926C47.1097 42.5859 47.2682 42.4578 47.2783 42.0904C47.2951 41.3522 47.2783 40.614 47.2951 39.8759C47.3086 39.2186 47.6389 39.0164 48.2524 39.2591C48.5659 39.3838 48.822 39.5961 49.0209 39.859C49.3411 40.2837 49.6344 40.732 49.931 41.1736C50.1838 41.5477 50.4096 41.9387 50.6759 42.3028C50.9085 42.6162 51.6029 42.7106 51.9062 42.4949C51.9568 42.4578 51.9871 42.3432 51.9703 42.2792C51.9366 42.1646 51.8759 42.0533 51.8051 41.9556M48.5558 37.9512C48.2794 38.0052 47.9861 37.995 47.6996 37.9917C47.467 37.9917 47.3154 37.8569 47.3052 37.6175C47.2918 37.331 47.3052 37.0445 47.3052 36.758C47.2884 35.5648 47.5176 35.3996 48.6569 35.7603C49.2063 35.9356 49.5198 36.3265 49.5097 36.822C49.4996 37.3681 49.1187 37.84 48.5591 37.9512" fill="white"/>
<path d="M153.408 41.4673C152.589 41.4505 151.77 41.4505 150.95 41.4336C150.721 41.4302 150.566 41.2988 150.539 41.0628C150.516 40.8606 150.512 40.655 150.509 40.4494C150.492 39.1651 150.509 39.1517 151.786 39.1348C152.319 39.1281 152.852 39.1348 153.381 39.0809C153.671 39.0505 153.728 38.7742 153.725 38.5146C153.725 38.1978 153.6 38.0292 153.31 38.0191C152.818 38.0023 152.326 38.009 151.834 38.0056C150.928 38.0011 150.486 37.5506 150.509 36.654C150.512 36.4888 150.516 36.3237 150.536 36.1619C150.566 35.936 150.701 35.7911 150.934 35.7709C151.18 35.7506 151.426 35.7405 151.668 35.7372C152.241 35.7271 152.818 35.7372 153.391 35.7169C153.691 35.7068 153.802 35.508 153.812 35.2248C153.829 34.7799 153.704 34.608 153.263 34.6013C152.157 34.5878 151.048 34.5844 149.943 34.6013C149.417 34.608 149.282 34.7327 149.272 35.2619C149.252 36.3675 149.265 37.4764 149.265 38.582H149.272C149.272 39.7314 149.262 40.8774 149.279 42.0269C149.285 42.401 149.44 42.5594 149.804 42.5662C150.994 42.583 152.181 42.5864 153.371 42.5729C153.805 42.5695 153.95 42.3875 153.947 41.9594C153.944 41.6055 153.816 41.4741 153.408 41.4673Z" fill="white"/>
<path d="M122.849 41.4944C121.973 40.6315 121.086 39.7754 120.213 38.9091C119.661 38.3563 119.664 38.3327 120.22 37.7226C120.803 37.089 121.403 36.4687 121.983 35.8351C122.232 35.5654 122.458 35.2722 122.681 34.9789C122.785 34.8441 122.681 34.6385 122.505 34.6149C121.99 34.5441 121.548 34.6216 121.177 35.0531C120.564 35.7676 119.91 36.4485 119.266 37.1395C119.023 37.399 118.828 37.7193 118.302 37.9148C118.302 36.8631 118.312 35.9631 118.299 35.0632C118.292 34.7295 118.1 34.598 117.712 34.598C117.325 34.598 117.156 34.7295 117.126 35.0632C117.112 35.225 117.116 35.3901 117.116 35.5553C117.116 37.6047 117.116 39.6574 117.116 41.7101C117.116 41.8753 117.106 42.0405 117.139 42.1989C117.163 42.3101 117.227 42.4382 117.315 42.5023C117.706 42.7787 118.289 42.5124 118.302 42.0472C118.319 41.5146 118.309 40.9821 118.312 40.4461C118.312 40.0787 118.312 39.708 118.326 39.3372C118.326 39.2664 118.366 39.1788 118.417 39.1282C118.525 39.0203 118.653 39.0844 118.744 39.1585C119.057 39.4248 119.367 39.6911 119.664 39.9776C120.375 40.6585 121.103 41.3225 121.771 42.0472C122.249 42.5697 122.805 42.6573 123.442 42.5596C123.503 42.5494 123.584 42.4719 123.601 42.4079C123.618 42.3438 123.587 42.2427 123.54 42.1921C123.318 41.9528 123.085 41.7203 122.853 41.4877" fill="white"/>
<path d="M29.6838 41.4808C28.9051 41.4606 28.1265 41.4707 27.3479 41.4538C26.6839 41.4403 26.6501 41.3999 26.6299 40.7527C26.6198 40.4662 26.6198 40.1797 26.6299 39.8932C26.6535 39.2595 26.7277 39.1753 27.331 39.1483C27.6984 39.1348 28.0692 39.1483 28.44 39.1415C28.8074 39.1348 29.1815 39.155 29.5422 39.091C29.8422 39.0371 29.8422 38.7506 29.8354 38.4978C29.8287 38.2753 29.768 38.0629 29.5253 38.0461C29.0366 38.009 28.5411 38.0124 28.0524 38.009C26.4614 37.9955 26.64 38.1539 26.6299 36.5293C26.6299 36.4079 26.6367 36.2832 26.6468 36.1619C26.667 35.9259 26.8052 35.7877 27.0344 35.7675C27.2771 35.7473 27.5265 35.7473 27.7726 35.7439C28.386 35.7338 29.0029 35.7372 29.6163 35.7203C29.8523 35.7136 29.9703 35.5518 30.004 35.3226C30.0714 34.8473 29.9029 34.608 29.431 34.6013C28.322 34.5878 27.2164 34.5844 26.1075 34.6013C25.5513 34.608 25.4434 34.7091 25.4367 35.2417C25.4232 36.3473 25.4333 37.4562 25.4333 38.5652C25.4333 39.7146 25.4232 40.8606 25.4367 42.01C25.4434 42.4785 25.5513 42.583 26.0367 42.5931C26.9805 42.61 27.9243 42.6032 28.868 42.5999C29.1546 42.5999 29.4444 42.5999 29.7276 42.5628C30.0377 42.519 30.0781 42.2662 30.0714 42.0066C30.0646 41.7403 30.0073 41.4977 29.6838 41.4909" fill="white"/>
<path d="M70.5132 36.3721C70.2975 35.8868 70.0851 35.398 69.8694 34.9126C69.7615 34.6666 69.5795 34.5418 69.2997 34.5317C68.966 34.5216 68.7638 34.6699 68.6391 34.9665C68.1166 36.2103 67.5874 37.4507 67.065 38.6945C66.5897 39.8237 66.1144 40.9562 65.6493 42.0922C65.5313 42.382 65.6762 42.5641 65.9863 42.5809C66.3942 42.6011 66.7077 42.4865 66.8493 42.0618C66.8998 41.9068 66.974 41.7585 67.0515 41.6135C67.2773 41.1821 67.311 40.6023 67.7088 40.3259C68.1099 40.0495 68.666 40.208 69.1514 40.2181C71.3592 40.2518 70.7592 39.8945 71.6794 41.7652C71.7165 41.8394 71.7401 41.9169 71.7772 41.991C72.0974 42.6214 72.1109 42.6247 73.1255 42.4394C72.9974 42.0955 72.8929 41.7517 72.7479 41.4214C72.0098 39.7361 71.2615 38.0541 70.5165 36.3721M68.6222 39.1496C68.3425 39.1361 68.2211 38.9136 68.3088 38.6204C68.3425 38.5024 68.3795 38.381 68.4368 38.2766C68.7267 37.744 68.7739 37.0968 69.2188 36.6418C69.8525 37.0058 69.8289 37.7406 70.1491 38.2833C70.2705 38.4889 70.3312 38.7282 70.4694 39.0855C69.7683 39.2338 69.1952 39.1799 68.6256 39.1529" fill="white"/>
<path d="M105.463 35.5216C105.382 35.3328 105.291 35.1508 105.207 34.9654C105.076 34.6823 104.877 34.5138 104.54 34.5373C104.263 34.5542 104.088 34.6857 103.987 34.9385C103.896 35.1677 103.785 35.3868 103.69 35.6126C103.04 37.1564 102.389 38.7001 101.739 40.2473C101.469 40.8877 101.196 41.5248 100.933 42.1686C100.845 42.3809 100.99 42.5596 101.23 42.5764C101.681 42.6135 102.028 42.4888 102.21 42.027C102.389 41.5686 102.598 41.127 102.777 40.6686C102.898 40.3653 103.104 40.2169 103.427 40.2169C104.206 40.2169 104.981 40.2169 105.76 40.2102C106.127 40.2068 106.377 40.3383 106.522 40.6922C106.724 41.1843 106.956 41.6629 107.172 42.1483C107.304 42.4483 107.55 42.5596 107.86 42.5764C108.355 42.6371 108.5 42.4214 108.281 41.9191C107.347 39.7855 106.407 37.6518 105.47 35.5182M105.612 39.0878C105.012 39.2529 104.408 39.1788 103.805 39.1316C103.63 39.1181 103.545 38.9563 103.586 38.7709C103.704 38.2316 104.223 37.126 104.597 36.6137C104.904 36.8463 105.018 37.2002 105.13 37.5305C105.301 38.0462 105.817 38.4574 105.615 39.0878" fill="white"/>
<path d="M139.521 35.3325C139.437 35.1437 139.356 34.9549 139.248 34.783C139.029 34.4359 138.429 34.4493 138.213 34.8134C138.068 35.0594 137.953 35.3257 137.842 35.592C137.094 37.3684 136.346 39.1481 135.601 40.9278C135.459 41.2682 135.304 41.6053 135.173 41.9491C135.014 42.3671 135.173 42.5963 135.591 42.5828C135.907 42.5996 136.154 42.485 136.285 42.1851C136.514 41.6559 136.733 41.1267 136.959 40.5975C137.067 40.348 137.256 40.2233 137.535 40.2233C138.358 40.2267 139.177 40.2301 139.999 40.2199C140.337 40.2166 140.529 40.3851 140.657 40.6682C140.889 41.1941 141.105 41.7266 141.361 42.2424C141.526 42.576 141.938 42.6704 142.329 42.5187C142.463 42.4682 142.517 42.3435 142.5 42.2255C142.477 42.0671 142.416 41.9087 142.352 41.7603C141.412 39.6166 140.471 37.4762 139.528 35.3358M137.637 39.1076C137.873 38.2414 138.206 37.5032 138.547 36.7684C138.628 36.5931 138.816 36.5998 138.914 36.7751C139.015 36.9537 139.123 37.1324 139.187 37.3212C139.386 37.8942 139.831 38.3694 139.834 39.0166C139.137 39.3335 138.432 39.1514 137.633 39.1076" fill="white"/>
<path d="M114.972 41.127C114.214 41.5011 113.405 41.5854 112.575 41.5247C111.352 41.4371 110.273 40.6652 109.997 39.5832C109.687 38.3563 109.842 37.217 110.883 36.3372C111.615 35.7204 112.461 35.4912 113.401 35.6092C114.133 35.6968 114.81 35.9867 115.505 36.2226C115.717 35.1541 115.676 35.0665 114.864 34.8238C114.628 34.753 114.392 34.6755 114.153 34.635C112.69 34.389 111.288 34.4665 110.088 35.4844C108.895 36.499 108.409 37.7765 108.679 39.3203C108.949 40.8708 109.845 41.9224 111.325 42.428C112.572 42.8561 113.829 42.755 115.06 42.3033C115.825 42.0202 115.879 41.8786 115.656 40.9011C115.39 40.8573 115.188 41.0191 114.972 41.127Z" fill="white"/>
<path d="M147.759 34.5983C146.778 34.5848 145.794 34.5915 144.813 34.5915C143.953 34.5915 143.094 34.6016 142.234 34.5915C141.81 34.5882 141.634 34.8106 141.638 35.1881C141.641 35.5657 141.813 35.7173 142.282 35.7342C142.649 35.7477 143.02 35.7342 143.387 35.7409C144.26 35.7612 144.307 35.7982 144.321 36.6241C144.334 37.4431 144.321 38.2622 144.321 39.0779H144.331C144.331 40.0588 144.317 41.043 144.338 42.0239C144.344 42.4317 144.553 42.5834 144.981 42.5733C145.393 42.5632 145.568 42.4149 145.571 41.9699C145.585 40.4161 145.581 38.8622 145.585 37.3049C145.585 36.9375 145.585 36.5668 145.608 36.1993C145.625 35.9095 145.811 35.7612 146.09 35.751C146.704 35.7308 147.317 35.7342 147.931 35.714C148.167 35.7039 148.285 35.5421 148.318 35.3162C148.389 34.8443 148.217 34.5983 147.756 34.5915" fill="white"/>
<path d="M34.4232 38.6588C34.0018 38.3352 33.5367 38.0689 33.0816 37.7925C32.7277 37.5802 32.3839 37.3544 32.1513 37.0038C31.848 36.5521 32.0064 36.0128 32.4884 35.76C32.8726 35.5578 33.2636 35.5072 33.6749 35.6589C34.0861 35.8139 34.4973 35.9724 34.9557 36.1476C34.9827 35.9387 34.9995 35.7802 35.0231 35.6184C35.0905 35.1196 34.8209 34.8735 34.3894 34.705C33.9142 34.5162 33.4254 34.5095 32.9367 34.5331C31.9558 34.5803 31.2412 35.0893 30.9615 35.9286C30.6716 36.8049 30.9176 37.5566 31.5985 38.1464C31.9996 38.4936 32.4513 38.7802 32.8996 39.07C33.2805 39.3161 33.6614 39.5588 33.9479 39.9127C34.4198 40.4925 34.3086 41.0958 33.6681 41.4531C33.3311 41.6418 32.9872 41.6756 32.603 41.5845C32.03 41.4463 31.5749 41.1093 31.0188 40.688C30.6413 41.9216 31.0761 42.0868 31.7873 42.4205C32.3232 42.6733 32.8962 42.7238 33.4726 42.6497C34.5614 42.5081 35.3602 41.6486 35.3804 40.57C35.3939 39.7812 35.0434 39.1341 34.4265 38.6588" fill="white"/>
<path d="M61.3816 38.1254C60.9602 37.8726 60.549 37.5996 60.158 37.2996C59.8614 37.0704 59.6221 36.767 59.7265 36.349C59.8277 35.9446 60.1647 35.7828 60.522 35.6479C60.8524 35.5232 61.1726 35.5805 61.4827 35.6917C61.8939 35.8401 62.2984 36.0052 62.7062 36.1636C63.0669 35.0142 62.5175 34.8356 61.8096 34.6165C61.4658 34.512 61.0782 34.5221 60.7108 34.5356C59.7501 34.5693 58.9142 35.1255 58.7221 35.9075C58.4996 36.8074 58.5704 37.613 59.4973 38.3175C59.922 38.6377 60.3838 38.9107 60.8389 39.1871C61.1962 39.4029 61.5265 39.6456 61.7557 39.9927C62.1332 40.5658 61.9141 41.2399 61.2939 41.5264C60.9332 41.6916 60.5894 41.6444 60.2187 41.5635C59.6794 41.4421 59.312 41.0275 58.7659 40.7242C58.4962 41.8062 58.5704 42.0657 59.6996 42.5005C60.1748 42.6825 60.667 42.7264 61.1523 42.6488C61.9579 42.5174 62.6456 42.1635 62.9489 41.3376C63.259 40.4983 63.1073 39.7197 62.5309 39.0355C62.2107 38.6546 61.8029 38.3815 61.3782 38.1254" fill="white"/>
<path d="M57.431 34.6062C55.6715 34.5927 53.9086 34.5961 52.1491 34.5961C52.0278 34.5961 51.9031 34.5961 51.7817 34.6028C51.4278 34.6332 51.2963 34.7916 51.293 35.1657C51.293 35.5432 51.4244 35.7118 51.775 35.732C52.0615 35.7488 52.348 35.7421 52.6345 35.7421C54.1176 35.7455 53.9895 35.6511 53.9963 37.1645C53.9963 37.8184 53.9963 38.4757 53.9963 39.1296C53.9963 39.8678 53.9963 40.6026 53.9963 41.3408C53.9963 41.5869 53.9895 41.8329 54.0064 42.079C54.03 42.4464 54.1715 42.5711 54.5524 42.5846C55.0412 42.6014 55.1929 42.4666 55.1962 41.9273C55.2063 40.3296 55.1962 38.7319 55.203 37.1376C55.203 36.8106 55.2097 36.4837 55.2266 36.1567C55.24 35.9208 55.3816 35.7758 55.6142 35.7691C56.2276 35.7488 56.8411 35.7556 57.4546 35.732C57.8051 35.7185 57.9332 35.5432 57.9298 35.159C57.9265 34.7848 57.795 34.6062 57.4343 34.6028" fill="white"/>
<path d="M112.306 19.7515C111.975 20.0549 111.645 20.3549 111.318 20.6583C111.133 20.8302 110.941 20.7257 110.749 20.6785C110.759 20.7627 110.786 20.8335 110.833 20.8908C110.88 20.9448 110.944 20.9852 111.022 20.9987C111.345 21.0593 111.301 21.1504 111.072 21.2987C111.015 21.3357 110.978 21.4133 110.934 21.4706C111.224 21.6223 111.156 21.8852 111.102 22.111C110.883 23.0177 110.371 23.7424 109.653 24.3256C108.733 25.0705 107.651 25.4412 106.505 25.5862C104.813 25.8019 103.148 25.63 101.594 24.8918C100.394 24.3188 99.3489 23.5469 98.8635 22.2256C98.8163 22.1043 98.7691 22.0571 98.7219 22.0503C98.7017 22.0503 98.6815 22.0503 98.6613 22.0604C98.5703 22.0942 98.4792 22.2155 98.3916 22.2155C98.4422 22.3672 98.4691 22.5323 98.5467 22.6672C99.3185 23.9885 100.431 24.9154 101.85 25.4682C103.657 26.1693 105.517 26.2671 107.398 25.8558C108.534 25.6064 109.555 25.0941 110.381 24.248C110.968 23.6514 111.463 22.9638 111.493 22.1177C111.524 21.2616 111.891 20.6616 112.505 20.1358C112.687 19.9807 112.808 19.7549 112.956 19.5628C112.956 19.5628 112.936 19.5392 112.912 19.519C112.892 19.4987 112.872 19.4785 112.872 19.4785C112.683 19.5729 112.498 19.6673 112.309 19.7616" fill="white"/>
<path d="M98.3069 20.9264C98.0743 20.9972 97.8519 21.0309 97.6496 20.8354C97.3395 20.5321 97.016 20.2422 96.6991 19.9489C96.6789 19.9725 96.6587 19.9927 96.6418 20.0096C96.5036 20.1309 96.3654 20.1006 96.2407 19.9422C96.1261 19.7939 96.0654 19.6018 95.8665 19.5377C95.8531 19.74 95.8564 19.9692 95.5531 19.9321C94.4879 19.8006 93.7498 19.2579 93.3453 18.2434C93.0217 17.431 92.9138 16.5816 92.8296 15.7322C92.6408 13.8446 92.8498 11.9773 93.2846 10.1403C93.3756 9.74926 93.5779 9.38185 93.7666 9.02119C93.8003 8.95715 93.9722 9.06837 94.0295 9.1796C94.0666 9.14253 94.0969 9.10209 94.1273 9.06164C94.188 8.98074 94.2351 8.8931 94.279 8.80209C94.3868 8.57625 94.4576 8.33019 94.5756 8.10773C94.6127 8.04032 94.6261 7.97627 94.6228 7.9156C94.6228 7.73695 94.4846 7.59539 94.4172 7.43359C94.1981 7.47741 94.0835 7.65269 93.9554 7.81111C93.2475 8.69423 92.8801 9.72902 92.6711 10.8211C92.324 12.6379 92.2936 14.475 92.4487 16.3153C92.5195 17.1715 92.7284 18.0041 93.1296 18.7793C93.5745 19.6388 94.2722 20.2894 95.2227 20.2557C96.2002 20.2186 96.8373 20.6298 97.4575 21.25C97.5654 21.3579 97.7339 21.4051 97.8755 21.4792C97.9699 21.2568 98.2968 21.2197 98.3103 20.9332" fill="white"/>
<path d="M117.106 14.32C116.768 12.3852 116.317 10.474 115.602 8.63702C115.336 7.94941 114.999 7.28875 114.497 6.73596C114.139 6.34159 113.775 5.94386 113.185 5.91016C113.158 5.94386 113.128 5.97419 113.098 6.0079C113.307 6.32474 113.246 6.82698 113.748 6.93821C113.981 6.8472 114.143 6.97192 114.274 7.13371C114.763 7.74718 115.097 8.44826 115.356 9.18307C116.013 11.0369 116.445 12.9481 116.768 14.8795C116.883 15.5638 116.9 16.2716 116.583 16.9255C115.946 18.2367 115.022 19.1165 113.442 19.0052C113.249 19.1569 113.057 19.312 112.865 19.4636C112.865 19.4636 112.885 19.4839 112.906 19.5041C112.926 19.5277 112.95 19.5479 112.95 19.5479C113.512 19.4434 114.089 19.494 114.648 19.3153C116.04 18.8771 117.139 17.4884 117.17 16.0289C117.18 15.4559 117.207 14.8728 117.109 14.3133" fill="white"/>
<path d="M97.8525 3.94956C97.7817 3.85856 97.6536 3.77429 97.6503 3.67991C97.5963 2.70579 98.0008 1.92377 98.739 1.32379C99.2412 0.91257 99.8513 0.858655 100.485 0.939551C101.304 1.04404 102.066 1.33391 102.844 1.58672C102.794 1.89682 102.43 1.78896 102.302 1.9912C102.423 1.9912 102.541 1.99793 102.659 1.99793C102.78 1.99793 102.898 1.99793 103.016 1.99793C103.347 1.98445 103.529 1.8058 103.546 1.46873C102.649 0.966498 101.658 0.717082 100.667 0.535065C99.1839 0.265411 98.0986 0.875492 97.5087 2.25073C97.2357 2.88442 97.0132 3.5552 97.266 4.26978C97.4851 4.20911 97.7413 4.21248 97.8525 3.94956Z" fill="white"/>
<path d="M106.07 1.79431C106.485 1.80105 106.889 1.78758 107.176 2.17857C107.189 2.19543 107.209 2.20891 107.236 2.21902C107.314 2.24599 107.435 2.23924 107.526 2.25609C107.749 2.03363 107.975 1.98981 108.207 2.02689C108.278 2.037 108.345 2.05386 108.416 2.07746C108.517 2.11116 108.618 2.15834 108.719 2.2089C109.394 2.28305 109.997 2.49204 110.378 3.09876C110.476 3.25381 110.412 3.4055 110.209 3.4628C110.277 3.60437 110.371 3.67516 110.479 3.7156C110.621 3.76616 110.782 3.75606 110.937 3.7628C110.944 3.7628 110.947 3.7628 110.951 3.7628C110.988 3.7628 111.022 3.76616 111.055 3.7729C111.055 3.692 111.069 3.60773 111.049 3.53357C110.674 2.29653 109.717 1.83813 108.548 1.75387C106.963 1.63926 105.379 1.58534 103.795 1.50781C103.984 1.6932 104.223 1.737 104.476 1.74374C105.008 1.76397 105.541 1.78757 106.077 1.79769" fill="white"/>
<path d="M112.39 5.93709C112.626 5.96069 112.865 5.98429 113.101 6.00788C113.132 5.97755 113.159 5.94385 113.189 5.91014C112.457 5.33713 111.928 4.54501 111.146 4.0293C111.072 4.21805 110.998 4.40344 110.924 4.59219C111.608 4.82477 112.019 5.36071 112.39 5.93709Z" fill="white"/>
<path d="M22.4128 22.7129C22.3353 22.7769 22.2611 22.8376 22.1836 22.9016C22.3454 22.9421 22.4162 22.8713 22.4128 22.7129Z" fill="#202C56"/>
<path d="M112.39 5.93697C111.557 6.64144 110.728 7.34591 109.892 8.04364C109.558 8.32341 109.528 8.31331 109.177 8.03692C109.022 7.91557 108.864 7.79759 108.706 7.67625C108.611 7.68299 108.517 7.68973 108.426 7.6931C108.645 7.93242 108.861 8.17174 109.08 8.41106C111.079 10.6121 111.287 13.9019 109.579 16.3423C109.366 16.6422 109.127 16.922 108.901 17.2119C109.053 17.3299 109.194 17.3063 109.336 17.1917C109.481 17.0771 109.646 17.0636 109.774 17.1816C110.637 17.9771 111.598 18.6748 112.309 19.6253C112.329 19.6489 112.309 19.7062 112.302 19.7467C112.491 19.6523 112.676 19.5579 112.865 19.4635C113.057 19.3118 113.249 19.1568 113.441 19.0051C113.522 18.8231 113.59 18.631 113.691 18.4624C115.808 14.8153 115.909 11.1245 113.957 7.37963C113.883 7.23469 113.819 7.08301 113.751 6.9347C113.249 6.82346 113.31 6.32123 113.101 6.00439C112.865 5.98079 112.626 5.95719 112.39 5.93359" fill="white"/>
<path d="M108.412 2.07567C108.342 2.05208 108.274 2.03522 108.203 2.02511C107.974 1.98803 107.745 2.03522 107.522 2.25431C107.731 2.30824 107.94 2.36219 108.153 2.41612C108.342 2.34533 108.527 2.2779 108.716 2.20711C108.615 2.15655 108.513 2.10938 108.412 2.07567Z" fill="white"/>
</svg>
