<svg width="126" height="92" viewBox="0 0 126 92" fill="none" xmlns="http://www.w3.org/2000/svg">
<path d="M19.6142 72.6673L12.0057 1.07535C11.9441 0.501829 12.3915 0 12.9621 0H108.038C108.589 0 109.027 0.465982 108.999 1.02038L104.965 81L36.1545 80.2831L19.6142 72.6696V72.6673Z" fill="white"/>
<path d="M84.9404 68.327C85.3348 68.4537 85.7387 68.3557 85.9952 68.382C86.5108 68.382 86.8861 68.3891 87.2591 68.3796C87.4207 68.3748 87.5181 68.2673 87.5205 68.0976C87.5252 67.5168 87.5347 66.9384 87.5252 66.3577C87.5181 65.9824 87.4634 65.9394 87.0453 65.9323C86.6699 65.9251 86.297 65.9275 85.9216 65.9323C84.6839 65.9466 84.8359 65.7721 84.843 67.0555C84.843 67.4786 84.7195 67.9183 84.9404 68.3294" fill="white"/>
<path d="M81.7123 68.374C82.0853 68.3812 82.4583 68.374 82.8336 68.374V68.386C83.1496 68.386 83.4656 68.3931 83.7815 68.386C84.0951 68.3764 84.1664 68.331 84.1474 68.0418C84.1046 67.3607 84.2971 66.6676 84.0405 65.9984C83.4181 65.8598 82.7861 65.9625 82.1589 65.9339C82.0164 65.9267 81.8715 65.9339 81.7289 65.9458C81.603 65.9578 81.508 66.0414 81.5056 66.1657C81.4961 66.8301 81.4961 67.4945 81.4961 68.1589C81.4961 68.2904 81.5792 68.374 81.7099 68.3764" fill="white"/>
<path d="M104.509 58.7627C104.481 59.4534 104.455 60.1441 104.429 60.8348L104.616 56.8125C104.586 57.3741 104.552 57.9382 104.521 58.4998C104.517 58.5858 104.512 58.6743 104.509 58.7627Z" fill="white"/>
<path d="M103.989 69.7542C103.939 71.0257 103.889 72.2971 103.837 73.5686L104.12 67.4551C104.079 68.1625 104.036 68.8699 103.996 69.5774C103.994 69.6347 103.991 69.6945 103.989 69.7518" fill="white"/>
<path d="M105.03 47.6851C105.013 48.0747 104.999 48.4643 104.984 48.8514L105.082 46.7363C105.068 46.9944 105.051 47.2526 105.037 47.5083C105.034 47.5656 105.032 47.6254 105.03 47.6828" fill="white"/>
<path d="M81.6 71.2222C81.8827 71.4851 82.3697 71.2819 82.6976 71.3202C82.9067 71.3202 83.0516 71.3202 83.1965 71.3202C84.2869 71.3082 84.1515 71.4468 84.1492 70.3475C84.1492 69.891 84.2252 69.4273 84.0921 68.9756C83.6265 68.7677 83.1347 68.892 82.6572 68.88C82.2937 68.8705 81.8376 68.7151 81.5834 68.9804C81.3339 69.2409 81.4836 69.6974 81.4907 70.0654C81.4979 70.4598 81.3102 70.9545 81.6 71.2246" fill="white"/>
<path d="M106.376 15.1242C106.359 15.4158 106.352 15.7074 106.326 15.9966C106.276 16.5462 106.264 16.5678 105.689 16.5701C103.805 16.5725 101.926 16.6753 100.047 16.7924C98.2272 16.9071 96.4122 17.0816 94.5948 17.2417C92.6348 17.4162 90.6844 17.6815 88.7363 17.9683C84.9565 18.5251 81.2148 19.2732 77.511 20.2148C72.8499 21.4003 68.2933 22.8964 63.8602 24.7701C63.7794 24.8036 63.6891 24.8155 63.6179 24.8633C63.3779 25.0234 63.1974 24.935 62.9978 24.7701C62.1948 24.1009 61.3704 23.458 60.577 22.7793C59.8452 22.1531 58.9852 21.8472 58.0611 21.6823C56.9469 21.4839 55.8231 21.3716 54.6947 21.3381C51.4495 21.2425 48.209 21.3429 44.9756 21.613C44.6597 21.6393 44.3413 21.6512 43.9018 21.6751C44.1774 21.3166 44.4482 21.2043 44.6858 21.0513C47.6554 19.168 50.7843 17.6002 54.0509 16.3168C54.4547 16.1591 54.88 16.0444 55.1294 15.6381C55.2102 15.5066 55.3646 15.4612 55.5072 15.454C57.1179 15.3656 58.5956 14.7179 60.1374 14.3403C62.4728 13.7667 64.82 13.2696 67.2218 13.0784C67.3097 13.0713 67.3976 13.045 67.4024 12.9422C67.4024 12.8968 67.3596 12.8394 67.3216 12.8036C67.2812 12.7653 67.2242 12.7438 67.1719 12.7151C64.7748 11.4198 62.3421 10.2057 59.7478 9.34769C59.0327 9.11108 58.3058 8.93184 57.5527 8.84102C56.8257 8.75498 56.1724 8.88882 55.5903 9.34291C55.1104 9.71814 54.6163 10.0766 54.1506 10.4686C52.7513 11.6468 51.4376 12.9231 50.1357 14.2089C48.1116 16.2093 46.1469 18.2694 44.194 20.3439C43.9968 20.5518 43.7902 20.7526 43.5597 20.9868C43.4908 20.6474 43.6381 20.4132 43.7094 20.1718C43.9612 19.3067 44.2487 18.451 44.5029 17.5883C44.6193 17.1915 44.788 16.8307 45.0303 16.4985C45.3724 16.03 45.6979 15.5472 46.0233 15.0645C46.1184 14.9235 46.249 14.7968 46.2514 14.6104C46.1279 14.4789 45.9806 14.5172 45.8523 14.5554C44.94 14.8255 44.2083 15.3943 43.5169 16.0228C43.3293 16.1925 43.2984 16.4244 43.258 16.6562C43.0798 17.6624 43.018 18.6781 42.9587 19.6962C42.9349 20.1025 42.9301 20.5112 42.9064 20.9175C42.8969 21.1039 42.6831 21.2234 42.5334 21.1206C42.2958 20.9581 42.0701 20.7765 41.8468 20.5924C38.6396 17.9563 35.3397 15.4445 31.9116 13.1023C30.8116 12.3519 29.6808 11.6397 28.5476 10.9394C28.0059 10.6048 27.4262 10.3347 26.8656 10.036C26.1053 9.6321 25.319 9.61297 24.5089 9.85436C23.7296 10.0886 22.9884 10.4112 22.2638 10.7769C20.3419 11.7472 18.5553 12.9326 16.7949 14.1658L16.8995 15.4158C17.4459 15.4636 17.9947 15.5186 18.5387 15.5927C20.7172 15.8914 22.8886 16.2284 25.0386 16.692C25.4853 16.7876 25.8915 16.7733 26.3097 16.6108C26.6256 16.4865 26.9511 16.3837 27.2908 16.2642C27.4049 16.5749 27.1031 16.7805 27.1863 17.0505C27.3811 17.2298 27.6424 17.2513 27.8919 17.3086C32.1444 18.3244 36.3138 19.6078 40.3549 21.2975C40.7825 21.4767 41.2054 21.6608 41.6306 21.8424C41.7399 21.8902 41.8587 21.9476 41.8634 22.0742C41.8706 22.2487 41.7162 22.3013 41.5855 22.3539C41.4239 22.4208 41.2624 22.4805 41.1032 22.5474C38.6158 23.5727 36.1404 24.6291 33.7361 25.8408C32.7003 26.3618 31.6883 26.9187 30.7095 27.5472C29.8851 28.0754 29.2389 28.7398 28.7923 29.6313C28.2316 30.7498 27.6306 31.8444 27.21 33.025C27.0342 33.5174 26.8703 34.0192 26.9535 34.5594C26.9725 34.686 27.096 34.7482 27.2053 34.6789C27.3265 34.6 27.4452 34.5187 27.5617 34.4303C29.5002 32.9557 31.4364 31.4763 33.3774 30.0017C33.6554 29.789 33.9428 29.5859 34.0545 29.2298C34.1661 28.8713 34.3728 28.7088 34.7648 28.8115C34.9477 28.8593 35.0832 28.6992 35.2186 28.5964C35.7745 28.1782 36.3257 27.7528 36.8792 27.3321C38.5636 26.0487 40.2456 24.7653 41.9323 23.4843C42.1058 23.3528 42.2578 23.1784 42.5809 23.1186C42.3338 23.6205 42.1105 24.0507 41.9086 24.4881C41.5451 25.2792 41.7019 25.8838 42.436 26.5506C42.6332 26.4431 42.5643 26.2471 42.5405 26.1037C42.4289 25.3987 42.5405 24.7223 42.7496 24.0531C42.8422 23.7591 42.9111 23.458 42.999 23.1306C44.0253 24.2586 47.5747 30.7187 48.4941 33.1206C48.2304 33.3142 47.9572 33.5221 47.6768 33.7205C42.5904 37.3317 37.9934 41.4879 33.9286 46.2295C29.4408 51.4636 25.7015 57.1827 22.9266 63.5209C22.4824 64.5319 22.0666 65.5548 21.7103 66.6016C21.6461 66.7904 21.5606 66.9744 21.4798 67.1727C21.2993 66.9648 21.2993 66.7258 21.2755 66.4988C21.0807 64.6466 20.8954 62.792 20.7006 60.9397C20.6555 60.5119 20.6103 60.0841 20.5628 59.6563C20.9263 61.8862 21.209 64.3167 21.3539 66.929C21.4204 68.1502 21.4537 69.3333 21.4584 70.4733C21.7127 69.816 22.0666 68.8792 22.5679 67.787C25.0173 62.455 28.0606 57.4815 31.5719 52.7924C34.2065 49.2744 37.0883 45.9738 40.2218 42.9003C42.9183 40.2547 45.781 37.8002 48.8029 35.5393C49.4063 35.0876 49.4016 34.9896 49.7413 35.7759C52.4591 42.0638 54.5308 48.5645 56.0987 55.2301C56.7972 58.2009 57.3792 61.1979 57.8377 64.2164C58.1395 66.2 58.4293 68.1837 58.6051 70.1841C58.7453 71.7782 58.9068 73.3675 59.0589 74.9592C59.0707 75.074 59.0731 75.1911 59.0779 75.3082C59.0945 75.8674 59.0636 75.9152 58.5006 75.8961C57.2011 75.8507 55.8944 75.9081 54.5997 75.7312C54.4001 75.7049 54.1958 75.7097 53.9938 75.7025C52.4615 75.6595 50.9339 75.5257 49.4087 75.3799C48.4584 75.2891 47.5058 75.2436 46.5555 75.148C45.2037 75.0118 43.8543 74.8541 42.5073 74.694C41.4453 74.5673 40.3834 74.4358 39.3262 74.2877C38.01 74.1036 36.6915 73.9268 35.3825 73.6973C33.3061 73.3341 31.2321 72.9445 29.1653 72.5358C26.8418 72.0746 24.5374 71.5153 22.2614 70.8533C21.993 70.7744 21.6984 70.7505 21.4656 70.5091L21.6533 72.7844C21.9051 72.8417 22.1569 72.8991 22.4087 72.9541C25.0648 73.5348 27.7351 74.0487 30.4196 74.4765C32.9046 74.8732 35.3896 75.2747 37.8818 75.6284C39.9439 75.92 42.0155 76.1566 44.0847 76.4004C45.9521 76.6203 47.8217 76.8282 49.6938 77.0242C51.105 77.1723 52.5162 77.3014 53.9297 77.4257C55.8326 77.593 57.7356 77.7579 59.6409 77.9037C61.5177 78.0495 63.3945 78.1809 65.2714 78.298C67.9868 78.4677 70.7046 78.6207 73.4224 78.7712C74.7813 78.8477 76.1402 78.9218 77.4992 78.9672C81.8111 79.1106 86.123 79.2444 90.4349 79.3735C94.8062 79.505 99.1775 79.5456 103.549 79.536L103.684 76.594C103.658 76.9596 103.627 77.3253 103.599 77.691C103.587 77.8583 103.478 77.9515 103.314 77.9539C102.853 77.9586 102.394 77.9539 101.962 77.9539C101.739 77.7268 101.807 77.4783 101.772 77.2584C101.741 77.0576 101.739 76.8521 101.739 76.6489C101.736 75.8626 101.722 75.0764 101.743 74.2901C101.753 73.91 101.632 73.628 101.361 73.3651C100.529 72.5526 99.7192 71.7208 98.8996 70.8987C93.6136 65.5882 88.3277 60.2777 83.0417 54.9672C82.8992 54.8238 82.7566 54.6781 82.6117 54.5347C82.2173 54.1523 82.2149 54.1523 81.7921 54.5633C81.5212 54.8262 81.2575 55.0963 80.9891 55.364C76.5109 59.838 72.0303 64.312 67.5497 68.786C67.3454 68.9891 67.1339 69.1923 66.9058 69.3691C66.8132 69.4408 66.6683 69.4098 66.6303 69.2687C66.445 68.5972 66.2644 67.9232 66.0933 67.2468C64.4232 60.696 62.3183 54.2909 59.7454 48.0459C57.7166 43.1178 55.3765 38.3403 52.5969 33.7898C52.1835 33.1134 52.2216 33.0991 52.8202 32.7072C55.6141 30.8812 58.4958 29.2154 61.4773 27.7169C61.8765 27.5162 62.2304 27.5066 62.6367 27.6189C63.6107 27.889 64.5919 28.1399 65.5731 28.3933C65.7798 28.4459 65.9057 28.3025 65.8391 28.0993C65.7109 27.7074 65.5042 27.3608 65.2428 27.0406C65.0599 26.8183 64.8841 26.5889 64.6133 26.2471C65.4971 25.8671 66.2858 25.511 67.0864 25.1836C71.7547 23.2692 76.5607 21.7826 81.4809 20.6857C83.9065 20.1431 86.3534 19.7106 88.8171 19.3616C90.5632 19.1131 92.3165 18.9123 94.0698 18.7354C95.393 18.6016 96.7282 18.5921 98.0538 18.4773C100.51 18.2694 102.972 18.3363 105.43 18.3268C106.105 18.3244 106.319 18.2957 106.374 18.5514C106.366 18.236 106.362 17.8368 106.357 17.3756C106.357 17.3756 106.347 16.2451 106.357 15.1194C106.383 12.8753 107.06 3.7289 107.055 3.78148C107.003 4.59645 106.799 7.82051 106.606 10.9322C106.519 12.328 106.44 13.7237 106.357 15.1194M64.1999 74.302C64.5373 73.9435 64.8627 73.5755 65.212 73.2289C70.6642 67.7989 76.1189 62.3713 81.5735 56.9461C82.3219 56.2005 82.146 56.2028 82.8849 56.9366C88.4845 62.5052 94.0816 68.0786 99.6812 73.6496C99.7643 73.7308 99.838 73.824 99.9283 73.8933C100.235 74.1251 100.313 74.4334 100.306 74.8111C100.285 75.7431 100.301 76.6752 100.297 77.6073C100.297 77.9085 100.232 77.9754 99.9473 77.9706C98.8188 77.9515 97.6903 77.9252 96.5619 77.8917C93.6397 77.8057 90.7176 77.7101 87.7955 77.6241C85.9448 77.5691 84.0918 77.5189 82.2387 77.4663C82.2387 77.4687 82.2387 77.4735 82.2387 77.4759C76.423 77.299 70.6072 77.1198 64.7915 76.9429C64.6751 76.9405 64.5586 76.9381 64.4446 76.9333C64.2759 76.9238 64.1809 76.8377 64.1785 76.6609C64.1761 76.3693 64.169 76.0778 64.1714 75.7862C64.1785 75.2915 64.1928 74.7991 64.2047 74.3044M58.7571 27.1003C56.2959 28.3216 53.9012 29.6623 51.5682 31.1202C51.5183 31.1513 51.4732 31.1871 51.4233 31.2158C51.1359 31.3807 51.086 31.3688 50.8674 31.0653C50.8175 30.9936 50.7724 30.9195 50.7249 30.8478C48.955 28.2236 47.0449 25.707 44.9115 23.3672C44.8355 23.2859 44.7761 23.1879 44.7001 23.0876C44.9305 22.9991 45.1158 23.0828 45.3035 23.1306C47.7885 23.7783 50.2759 24.4212 52.7585 25.0784C53.293 25.2194 53.8157 25.3532 54.3716 25.1883C54.5593 25.1334 54.7945 25.1047 54.9061 25.3389C55.0629 25.6711 55.3599 25.7595 55.6711 25.8384C56.5929 26.0774 57.517 26.314 58.4364 26.5554C58.6835 26.6199 58.9282 26.6988 59.1824 26.7729C59.0755 26.9641 58.9116 27.0238 58.7571 27.1003Z" fill="white"/>
<path d="M87.4708 68.9743C86.8864 68.7592 86.2782 68.9097 85.6819 68.8715C85.4823 68.8595 85.278 68.8715 85.0784 68.8834C84.9502 68.8906 84.8575 68.9623 84.8551 69.0961C84.8504 69.7629 84.8504 70.4297 84.8551 71.0965C84.8551 71.2304 84.9525 71.3045 85.0784 71.3069C85.4253 71.314 85.7698 71.3069 86.1166 71.3069V71.314C86.492 71.314 86.8674 71.314 87.2403 71.314C87.4066 71.314 87.504 71.2256 87.5159 71.0535C87.523 70.9675 87.5278 70.879 87.5254 70.793C87.504 70.186 87.5824 69.5765 87.4708 68.9743Z" fill="white"/>
<path d="M105.448 18.3311C102.989 18.3407 100.528 18.2738 98.0714 18.4817C96.7457 18.594 95.4106 18.606 94.0873 18.7398C92.334 18.9167 90.5808 19.1174 88.8346 19.366C86.371 19.7149 83.924 20.1499 81.4984 20.69C76.5783 21.787 71.7746 23.2736 67.104 25.1879C66.3033 25.5154 65.5146 25.8691 64.6308 26.2515C64.9017 26.5932 65.0775 26.8203 65.2604 27.0449C65.5194 27.3628 65.726 27.7117 65.8543 28.1037C65.9208 28.3068 65.7949 28.4502 65.5883 28.3977C64.6095 28.1443 63.6283 27.8934 62.6519 27.6233C62.2456 27.511 61.8916 27.5205 61.4925 27.7213C58.511 29.2198 55.6269 30.8856 52.8354 32.7115C52.2367 33.1035 52.1987 33.1178 52.6121 33.7942C55.3917 38.3447 57.7294 43.1222 59.7606 48.0503C62.3335 54.2953 64.4384 60.7003 66.1085 67.2512C66.282 67.9276 66.4625 68.6016 66.6454 69.2731C66.6835 69.4141 66.8284 69.4452 66.921 69.3735C67.1491 69.1967 67.3582 68.9935 67.5625 68.7904C72.0431 64.3187 76.5213 59.8424 81.0019 55.3683C81.268 55.1007 81.534 54.833 81.8049 54.5677C82.2277 54.1542 82.2301 54.1566 82.6245 54.539C82.7694 54.68 82.912 54.8258 83.0545 54.9716C88.3405 60.2821 93.6264 65.5926 98.9124 70.9031C99.732 71.7252 100.542 72.5593 101.374 73.3695C101.644 73.6324 101.766 73.9144 101.756 74.2944C101.735 75.0807 101.749 75.867 101.751 76.6533C101.751 76.8565 101.751 77.062 101.785 77.2628C101.82 77.4826 101.751 77.7312 101.975 77.9582C102.405 77.9582 102.866 77.963 103.326 77.9582C103.49 77.9582 103.597 77.8626 103.612 77.6954C103.64 77.3297 103.669 76.964 103.697 76.5984C103.716 76.3259 103.735 76.0534 103.747 75.781C103.778 75.0449 103.809 74.3112 103.837 73.5751C103.889 72.3036 103.939 71.0321 103.989 69.7607C103.989 69.7033 103.994 69.6436 103.996 69.5862C104.037 68.8788 104.08 68.1714 104.12 67.4639C104.172 66.5749 104.222 65.6834 104.265 64.7943C104.327 63.4775 104.377 62.1606 104.429 60.8437C104.455 60.153 104.481 59.4623 104.51 58.7716C104.512 58.6856 104.517 58.5972 104.521 58.5088C104.552 57.9471 104.583 57.3831 104.616 56.8214C104.681 55.6695 104.745 54.5175 104.799 53.3656C104.871 51.8647 104.928 50.3614 104.985 48.8605C104.999 48.4709 105.016 48.0814 105.03 47.6942C105.03 47.6368 105.035 47.5771 105.037 47.5197C105.051 47.2616 105.065 47.0035 105.082 46.7454C105.163 45.3472 105.246 43.9491 105.313 42.551C105.403 40.6032 105.472 38.653 105.55 36.7052C105.55 36.6478 105.555 36.5904 105.557 36.5331C105.557 36.5331 105.557 36.5307 105.557 36.5283C105.65 34.8434 105.757 33.1584 105.835 31.4735C105.928 29.497 105.997 27.5181 106.075 25.5393C106.075 25.4819 106.08 25.4222 106.082 25.3648C106.184 23.3596 106.296 21.3544 106.384 19.3493C106.401 18.9525 106.422 18.7135 106.391 18.5654C106.336 18.3096 106.123 18.3383 105.448 18.3407" fill="#FF9D00"/>
<path d="M15.1773 8.48262C15.3602 10.2201 15.5384 11.9576 15.7261 13.6951C15.7617 14.0321 15.8283 14.3667 15.8924 14.7802C16.2155 14.5603 16.4768 14.3882 16.7334 14.2066C16.7548 14.1898 16.7785 14.1755 16.7999 14.1588C18.5579 12.9256 20.3469 11.7378 22.2688 10.7698C22.9934 10.4042 23.7346 10.0815 24.5139 9.84729C25.324 9.6059 26.1103 9.62502 26.8706 10.0289C27.4336 10.3277 28.0133 10.5977 28.5526 10.9323C29.6858 11.635 30.8166 12.3448 31.9166 13.0952C35.3447 15.435 38.6446 17.9469 41.8518 20.5854C42.0751 20.7694 42.3008 20.9487 42.5384 21.1136C42.6881 21.2163 42.9019 21.0968 42.9114 20.9104C42.9351 20.5041 42.9399 20.0954 42.9637 19.6891C43.0207 18.671 43.0848 17.6553 43.263 16.6491C43.3034 16.4197 43.3343 16.1855 43.5219 16.0158C44.2157 15.3896 44.945 14.8208 45.8573 14.5483C45.9879 14.5101 46.1328 14.4719 46.2564 14.6033C46.254 14.7897 46.1233 14.9164 46.0283 15.0574C45.7028 15.5378 45.3774 16.0206 45.0353 16.489C44.7906 16.8236 44.6243 17.1821 44.5079 17.5788C44.2537 18.444 43.9662 19.2972 43.7144 20.1624C43.6431 20.4037 43.4958 20.638 43.5647 20.9773C43.7952 20.7431 44.0018 20.5447 44.199 20.3344C46.1495 18.2599 48.1142 16.1998 50.1407 14.1994C51.4426 12.9136 52.7563 11.6398 54.1556 10.4591C54.6213 10.0672 55.1154 9.70867 55.5953 9.33345C56.1774 8.87936 56.8307 8.74552 57.5577 8.83155C58.3084 8.91998 59.0377 9.10162 59.7528 9.33822C62.3447 10.1962 64.7798 11.4079 67.1769 12.7057C67.2268 12.7344 67.2862 12.7535 67.3266 12.7941C67.3646 12.83 67.4097 12.8873 67.4074 12.9327C67.4026 13.0355 67.3171 13.0618 67.2268 13.069C64.825 13.2602 62.4778 13.7573 60.1424 14.3309C58.6006 14.7085 57.1229 15.3561 55.5122 15.4446C55.3696 15.4517 55.2152 15.4972 55.1344 15.6286C54.8826 16.0349 54.4597 16.1496 54.0559 16.3073C50.7869 17.5908 47.6581 19.1586 44.6908 21.0419C44.4532 21.1924 44.1824 21.3048 43.9068 21.6656C44.3487 21.6394 44.6647 21.6298 44.9806 21.6035C48.2164 21.331 51.4544 21.2307 54.6997 21.3287C55.8281 21.3621 56.9519 21.4744 58.0661 21.6728C58.9902 21.8377 59.8478 22.1436 60.5819 22.7698C61.3754 23.4485 62.1998 24.0914 63.0028 24.7606C63.2023 24.9279 63.3829 25.014 63.6229 24.8538C63.6941 24.806 63.7844 24.7941 63.8652 24.7606C68.2983 22.8869 72.8549 21.3908 77.516 20.2054C81.2198 19.2637 84.9615 18.5157 88.7413 17.9588C90.6894 17.672 92.6374 17.4067 94.5998 17.2323C96.4172 17.0721 98.2322 16.8977 100.052 16.783C101.929 16.6635 103.81 16.5631 105.692 16.5607C106.265 16.5607 106.276 16.5368 106.329 15.9871C106.355 15.6979 106.362 15.4063 106.379 15.1148C106.462 13.719 106.54 12.3233 106.628 10.9276C106.778 8.54476 106.937 6.16197 107.079 3.77679C107.134 2.86144 107.198 2.94748 106.262 2.94031C89.9885 2.83276 73.7149 2.72043 57.4412 2.62005C43.5718 2.53401 29.7 2.46231 15.8306 2.393C14.3292 2.38583 14.5549 2.1564 14.6832 3.69553C14.8162 5.29203 15.0134 6.88135 15.1797 8.47306" fill="#03052D"/>
<path d="M29.1729 72.5354C31.2422 72.9465 33.3138 73.3336 35.3925 73.6969C36.7016 73.9264 38.0201 74.1032 39.3362 74.2872C40.3958 74.4354 41.4554 74.5669 42.5173 74.6935C43.8667 74.8537 45.2161 75.0114 46.5655 75.1476C47.5158 75.2432 48.4685 75.2886 49.4187 75.3794C50.944 75.5252 52.4715 75.6591 54.0039 75.7021C54.2058 75.7069 54.4101 75.7021 54.6097 75.7308C55.9044 75.9076 57.2111 75.8503 58.5106 75.8957C59.0737 75.9148 59.1045 75.867 59.0879 75.3078C59.0855 75.1906 59.0808 75.0759 59.0689 74.9588C58.9169 73.3671 58.7553 71.7754 58.6151 70.1837C58.4393 68.1833 58.1495 66.1972 57.8478 64.2159C57.3893 61.1974 56.8072 58.2004 56.1088 55.2297C54.5408 48.5641 52.4692 42.0634 49.7514 35.7754C49.4116 34.9891 49.4164 35.0871 48.8129 35.5388C45.791 37.7997 42.9283 40.2542 40.2319 42.8999C37.0983 45.9734 34.2166 49.2739 31.5819 52.7919C28.0706 57.4787 25.0273 62.4522 22.5779 67.7865C22.1717 68.6708 21.7607 69.5551 21.4685 70.4729C21.4661 70.4824 21.4614 70.492 21.459 70.5039C21.4637 70.5087 21.4685 70.5111 21.4732 70.5159C21.7061 70.7573 22.0006 70.7812 22.2691 70.86C24.545 71.522 26.8495 72.0813 29.1729 72.5426" fill="#FF9D00"/>
<path d="M21.2832 66.4922C21.307 66.7192 21.307 66.9582 21.4875 67.1661C21.5683 66.9678 21.6538 66.7837 21.718 66.5949C22.0743 65.5481 22.4924 64.5276 22.9343 63.5143C25.7115 57.1761 29.4485 51.4569 33.9386 46.2229C38.0059 41.4812 42.6029 37.3251 47.6869 33.7139C47.9672 33.5155 48.2404 33.3076 48.5041 33.114C47.5871 30.7145 44.0378 24.252 43.0091 23.124C42.9212 23.4514 42.8523 23.7525 42.7597 24.0465C42.5506 24.7181 42.4389 25.392 42.5506 26.0971C42.5744 26.2405 42.6433 26.4341 42.4461 26.544C41.712 25.8796 41.5552 25.2749 41.9187 24.4815C42.1206 24.0417 42.3439 23.6139 42.591 23.112C42.2679 23.1718 42.1158 23.3462 41.9424 23.4777C40.2557 24.7587 38.5737 26.0421 36.8893 27.3255C36.3357 27.7485 35.7846 28.1716 35.2286 28.5898C35.0932 28.6926 34.9578 28.8527 34.7749 28.8049C34.3829 28.7021 34.1762 28.8647 34.0646 29.2231C33.9529 29.5792 33.6678 29.7824 33.3875 29.9951C31.4489 31.4697 29.5103 32.9467 27.5717 34.4237C27.4577 34.5121 27.3365 34.5934 27.2154 34.6722C27.1061 34.7416 26.9825 34.6794 26.9635 34.5528C26.8804 34.0126 27.0443 33.5107 27.2201 33.0184C27.6406 31.8378 28.244 30.7408 28.8023 29.6247C29.249 28.7332 29.8952 28.0712 30.7195 27.5406C31.696 26.9144 32.7104 26.3552 33.7462 25.8342C36.1528 24.6249 38.6259 23.5661 41.1133 22.5408C41.2748 22.4739 41.4364 22.4142 41.5956 22.3472C41.7262 22.2923 41.8806 22.2421 41.8735 22.0676C41.8688 21.9409 41.7476 21.8812 41.6407 21.8358C41.2154 21.6518 40.7902 21.4677 40.3649 21.2909C36.3239 19.6036 32.1545 18.3178 27.9019 17.302C27.6525 17.2423 27.3912 17.2208 27.1964 17.0439C27.1108 16.7738 27.4149 16.5683 27.3009 16.2576C26.9612 16.3771 26.6357 16.4799 26.3197 16.6042C25.9016 16.7667 25.493 16.7834 25.0487 16.6854C22.8987 16.2218 20.7249 15.8824 18.5488 15.586C18.0047 15.5119 17.4583 15.4594 16.9095 15.4092C16.7076 15.3901 16.5057 15.3733 16.3037 15.3566C15.9949 15.3303 15.9307 15.402 15.9592 15.6864C16.1184 17.2805 16.28 18.8722 16.4486 20.4639C16.6553 22.4333 16.8668 24.4002 17.0734 26.3695C17.2706 28.2504 17.4654 30.1337 17.6626 32.0146C17.8693 33.9839 18.0808 35.9509 18.2874 37.9202C18.4846 39.8011 18.6794 41.6844 18.8766 43.5653C19.0833 45.5346 19.2971 47.5015 19.5038 49.4685C19.701 51.3494 19.8934 53.2327 20.093 55.1136C20.2522 56.624 20.4161 58.1369 20.5776 59.6473C20.6228 60.0751 20.6703 60.5029 20.7154 60.9307C20.9102 62.7829 21.0955 64.6376 21.2903 66.4898" fill="#03052D"/>
<path d="M90.4475 79.3729C86.1356 79.2439 81.8237 79.11 77.5118 78.9666C76.1529 78.9212 74.7916 78.8471 73.4351 78.7706C70.7172 78.6201 67.9994 78.4647 65.284 78.2974C63.4048 78.1803 61.528 78.0489 59.6512 77.9031C57.7458 77.7573 55.8429 77.5924 53.94 77.4251C52.5264 77.3008 51.1152 77.1718 49.7041 77.0236C47.832 76.8276 45.9623 76.6197 44.095 76.3998C42.0258 76.156 39.9541 75.9218 37.892 75.6278C35.3999 75.2741 32.9149 74.8726 30.4299 74.4783C27.7453 74.0505 25.075 73.5342 22.419 72.9559C22.1672 72.9009 21.9153 72.8435 21.6635 72.7862C21.0981 72.6595 20.5303 72.5305 19.9649 72.4062C19.7368 72.356 19.6418 72.4444 19.6727 72.6762C19.6917 72.8196 19.7178 72.963 19.7439 73.1064C20.25 75.7043 20.756 78.3046 21.2644 80.9025C21.4378 81.7868 21.6184 82.6711 21.7799 83.5577C21.8274 83.823 21.9676 83.9736 22.2147 84.0357C22.5235 84.1122 22.8324 84.1863 23.1436 84.258C25.9398 84.9033 28.7788 85.2881 31.6225 85.6203C34.2976 85.931 36.9821 86.1508 39.669 86.3038C42.3869 86.4591 45.107 86.593 47.8272 86.6527C56.4867 86.8415 65.1414 86.6957 73.7938 86.299C75.0672 86.2417 76.3382 86.1747 77.6116 86.1006C80.0681 85.9549 82.5245 85.8067 84.981 85.6442C86.8887 85.5199 88.794 85.3884 90.6994 85.2355C93.0941 85.0443 95.4864 84.8292 97.8811 84.6189C100.072 84.4253 102.264 84.2293 104.455 84.0262C104.74 83.9999 105.02 83.9377 105.317 83.8899C105.336 83.7465 105.362 83.6342 105.362 83.5219C105.365 82.444 105.365 81.3661 105.362 80.2883C105.362 80.1138 105.358 79.9393 105.348 79.7649C105.341 79.6334 105.265 79.5522 105.132 79.545C104.987 79.5354 104.842 79.533 104.697 79.533C104.319 79.533 103.942 79.533 103.564 79.533C99.1926 79.5402 94.8212 79.4996 90.4499 79.3705" fill="#592C06"/>
<path d="M64.4407 76.9272C64.5571 76.9344 64.6711 76.9344 64.7875 76.9368C70.6033 77.1136 76.419 77.2929 82.2348 77.4697C82.2348 77.4673 82.2348 77.4626 82.2348 77.4602C84.0878 77.5127 85.9385 77.5629 87.7915 77.6179C90.7137 77.7063 93.6358 77.7995 96.5579 77.888C97.6864 77.9214 98.8149 77.9453 99.9433 77.9668C100.228 77.9716 100.29 77.9047 100.293 77.6036C100.3 76.6715 100.283 75.7394 100.302 74.8073C100.312 74.4297 100.233 74.1238 99.9243 73.8896C99.8317 73.8203 99.758 73.727 99.6772 73.6458C94.0801 68.0748 88.4805 62.5038 82.881 56.9328C82.1445 56.1991 82.3203 56.1967 81.5696 56.9424C76.1149 62.3676 70.6603 67.7952 65.208 73.2252C64.8588 73.5717 64.5333 73.9397 64.196 74.2982C64.1841 74.7906 64.1698 75.2853 64.1627 75.78C64.1579 76.0716 64.1651 76.3632 64.1698 76.6548C64.1698 76.8292 64.2696 76.9176 64.4359 76.9272M87.5231 70.797C87.5255 70.883 87.5207 70.9714 87.5136 71.0575C87.5017 71.2295 87.4043 71.3156 87.238 71.318C86.8626 71.3204 86.4873 71.318 86.1143 71.318V71.3108C85.7674 71.3108 85.423 71.3156 85.0761 71.3108C84.9502 71.3108 84.8528 71.2343 84.8528 71.1005C84.848 70.4337 84.848 69.7669 84.8528 69.1001C84.8528 68.9639 84.9478 68.8946 85.0761 68.8874C85.278 68.8754 85.48 68.8611 85.6795 68.8754C86.2758 68.9137 86.884 68.7631 87.4685 68.9782C87.5801 69.5829 87.5017 70.1923 87.5231 70.797ZM85.9219 65.931C86.2972 65.9262 86.6702 65.9262 87.0456 65.931C87.4637 65.9382 87.5183 65.9812 87.5255 66.3564C87.535 66.9372 87.5255 67.5155 87.5207 68.0963C87.5207 68.266 87.4209 68.3735 87.2594 68.3783C86.884 68.3903 86.511 68.3807 85.9955 68.3807C85.7389 68.3544 85.3327 68.45 84.9407 68.3257C84.7198 67.9171 84.8457 67.4773 84.8433 67.0543C84.8362 65.7709 84.6841 65.9453 85.9219 65.931ZM81.5054 66.1628C81.5054 66.0385 81.6028 65.9573 81.7287 65.9429C81.8713 65.9286 82.0162 65.9238 82.1587 65.931C82.7859 65.9621 83.4155 65.8569 84.0403 65.9955C84.2969 66.6647 84.1044 67.3578 84.1472 68.0389C84.1638 68.3257 84.0949 68.3735 83.7813 68.3831C83.4654 68.3927 83.1494 68.3831 82.8334 68.3831V68.3711C82.4604 68.3711 82.0875 68.3759 81.7121 68.3711C81.5814 68.3711 81.4983 68.2851 81.4983 68.1537C81.4983 67.4893 81.4983 66.8248 81.5078 66.1604M81.5838 68.983C81.838 68.7153 82.2942 68.873 82.6576 68.8826C83.1352 68.8946 83.6269 68.7703 84.0926 68.9782C84.2256 69.4299 84.1472 69.8936 84.1496 70.35C84.152 71.4494 84.2874 71.3132 83.1969 71.3228C83.052 71.3228 82.9095 71.3228 82.698 71.3228C82.3702 71.2821 81.8832 71.4877 81.6004 71.2248C81.3106 70.9547 81.5007 70.46 81.4912 70.0656C81.484 69.6976 81.3344 69.2435 81.5838 68.9806" fill="#03052D"/>
<path d="M55.6742 25.8385C55.3629 25.7573 55.066 25.6712 54.9092 25.339C54.7975 25.1048 54.5623 25.1335 54.3747 25.1884C53.8187 25.3534 53.2985 25.2219 52.7615 25.0785C50.2789 24.4213 47.7915 23.776 45.3066 23.1307C45.1212 23.0829 44.9336 22.9992 44.7031 23.0877C44.7791 23.188 44.8385 23.2837 44.9146 23.3673C47.048 25.7071 48.958 28.2213 50.7303 30.8479C50.7778 30.9196 50.823 30.996 50.8729 31.0654C51.089 31.3689 51.1413 31.3832 51.4288 31.2159C51.4787 31.1872 51.5238 31.1514 51.5737 31.1203C53.9043 29.6625 56.3014 28.3241 58.7626 27.1004C58.917 27.0239 59.0809 26.9642 59.1878 26.773C58.936 26.6989 58.6913 26.62 58.4419 26.5555C57.5201 26.3141 56.5983 26.0775 55.6765 25.8385" fill="#1F2B55"/>
<path d="M33.8227 88.8942C36.1841 89.5085 38.5789 89.8861 41.0258 89.8622C41.3727 89.8598 41.7219 89.8622 42.0688 89.8622C44.0715 89.9195 46.06 89.7737 48.0366 89.4654C48.8918 89.3316 49.7352 89.1165 50.5786 88.9181C50.771 88.8727 50.9468 88.758 51.125 88.6624C51.1678 88.6409 51.2129 88.5692 51.2082 88.5262C51.201 88.4808 51.1416 88.433 51.0941 88.4067C50.9611 88.3302 50.8162 88.3565 50.6712 88.3684C49.6616 88.4497 48.6543 88.574 47.6446 88.5979C45.2736 88.6528 42.9027 88.7222 40.5293 88.4975C38.5361 88.3087 36.569 88.0052 34.6447 87.4603C33.1979 87.0492 31.7606 86.5999 30.3161 86.1864C28.6959 85.7228 27.0495 85.4575 25.3533 85.4551C23.8708 85.4551 22.4026 85.5579 20.9534 85.8566C19.1907 86.2175 17.4801 86.7552 15.8718 87.5821C15.6675 87.6873 15.475 87.8187 15.285 87.9502C15.2517 87.9741 15.2327 88.0577 15.247 88.1008C15.2589 88.139 15.3325 88.1868 15.3705 88.1796C15.7102 88.1151 16.0523 88.0482 16.3897 87.9669C18.7321 87.4029 21.1031 87.054 23.5168 87.0731C24.0656 87.0779 24.612 87.1615 25.1608 87.183C26.7573 87.2404 28.3253 87.4937 29.8742 87.8689C31.1951 88.1892 32.5065 88.5525 33.8227 88.8942Z" fill="#A9D2FF"/>
<path d="M103.312 85.2668C101.397 85.0708 99.4963 85.1832 97.6076 85.4891C96.1395 85.7257 94.7497 86.2132 93.4406 86.9254C93.1342 87.0903 92.8277 87.2576 92.5878 87.5181C92.5569 87.5516 92.5402 87.6424 92.564 87.6711C92.5901 87.707 92.6733 87.7309 92.7184 87.7165C93.1318 87.5851 93.5452 87.4536 93.9514 87.3078C95.6857 86.6936 97.4698 86.3829 99.3087 86.3495C100.62 86.3256 101.901 86.543 103.176 86.8035C104.35 87.0449 105.519 87.1764 106.699 86.8633C108.265 86.4474 109.657 85.7018 110.888 84.6454C111.08 84.4805 111.306 84.3276 111.387 83.8926C110.886 84.134 110.498 84.3156 110.111 84.5044C108.866 85.1138 107.536 85.3935 106.17 85.4341C105.219 85.4604 104.262 85.3672 103.312 85.2716" fill="#A9D2FF"/>
<path d="M101.181 87.5071C99.8956 87.2681 98.6127 87.1678 97.3061 87.3709C96.2679 87.531 95.2748 87.8154 94.3246 88.248C92.797 88.9435 91.2076 89.2829 89.5232 89.1753C88.6537 89.1204 87.808 88.9435 86.9598 88.7595C86.7912 88.7236 86.6225 88.6854 86.4514 88.6615C86.4134 88.6567 86.3422 88.7069 86.3327 88.7427C86.3208 88.7882 86.3398 88.8694 86.373 88.8957C86.5821 89.0511 86.7888 89.2088 87.0145 89.3378C87.5942 89.6748 88.2166 89.9043 88.8604 90.0811C90.5115 90.5352 92.1175 90.4659 93.6641 89.6748C94.0252 89.4908 94.4006 89.3402 94.7688 89.1706C97.0709 88.107 99.4822 87.8656 101.97 88.205C102.452 88.2719 102.937 88.3341 103.478 88.4058C103.333 88.0879 103.112 88.0592 102.932 87.9923C102.364 87.7772 101.78 87.6195 101.181 87.5071Z" fill="#A9D2FF"/>
<path d="M28.4857 88.6999C27.6209 88.2721 26.7015 88.0499 25.7512 87.8969C23.4777 87.5313 21.3229 87.9447 19.2275 88.8123C19.1467 88.8457 19.0707 88.8888 18.9947 88.9318C18.8997 88.9868 18.7405 89.0178 18.769 89.154C18.8023 89.307 18.9448 89.2329 19.0469 89.2114C19.1895 89.1827 19.3297 89.1493 19.4698 89.1158C21.8859 88.5398 24.3258 88.4012 26.787 88.7525C27.3881 88.8386 27.9844 88.9437 28.5831 89.0417C28.6638 89.0752 28.7565 89.0847 28.7755 88.9724C28.7921 88.872 28.7114 88.8242 28.633 88.7836C28.5807 88.7573 28.5332 88.7262 28.4809 88.6999" fill="#A9D2FF"/>
</svg>
